0
SECTION
2
HEADER
9
$INSUNITS
70
4
9
$ACADVER
1
AC1014
9
$HANDSEED
5
FFFF
0
ENDSEC
0
SECTION
2
TABLES
0
TABLE
2
VPORT
5
8
100
AcDbSymbolTable
0
ENDTAB
0
TABLE
2
LTYPE
5
5
100
AcDbSymbolTable
0
LTYPE
5
14
100
AcDbSymbolTableRecord
100
AcDbLinetypeTableRecord
2
BYBLOCK
70
0
0
LTYPE
5
15
100
AcDbSymbolTableRecord
100
AcDbLinetypeTableRecord
2
BYLAYER
70
0
0
ENDTAB
0
TABLE
2
LAYER
5
2
100
AcDbSymbolTable
70
2
0
LAYER
5
50
100
AcDbSymbolTableRecord
100
AcDbLayerTableRecord
2
0
70
0
6
CONTINUOUS
0
ENDTAB
0
TABLE
2
STYLE
5
3
100
AcDbSymbolTable
70
1
0
STYLE
5
11
100
AcDbSymbolTableRecord
100
AcDbTextStyleTableRecord
2
STANDARD
70
0
0
ENDTAB
0
TABLE
2
VIEW
5
6
100
AcDbSymbolTable
70
0
0
ENDTAB
0
TABLE
2
UCS
5
7
100
AcDbSymbolTable
70
0
0
ENDTAB
0
TABLE
2
APPID
5
9
100
AcDbSymbolTable
70
2
0
APPID
5
12
100
AcDbSymbolTableRecord
100
AcDbRegAppTableRecord
2
ACAD
70
0
0
ENDTAB
0
TABLE
2
DIMSTYLE
5
A
100
AcDbSymbolTable
70
1
0
ENDTAB
0
TABLE
2
BLOCK_RECORD
5
1
100
AcDbSymbolTable
70
1
0
BLOCK_RECORD
5
1F
100
AcDbSymbolTableRecord
100
AcDbBlockTableRecord
2
*MODEL_SPACE
0
BLOCK_RECORD
5
1B
100
AcDbSymbolTableRecord
100
AcDbBlockTableRecord
2
*PAPER_SPACE
0
ENDTAB
0
ENDSEC
0
SECTION
2
BLOCKS
0
BLOCK
5
20
100
AcDbEntity
100
AcDbBlockBegin
2
*MODEL_SPACE
0
ENDBLK
5
21
100
AcDbEntity
100
AcDbBlockEnd
0
BLOCK
5
1C
100
AcDbEntity
100
AcDbBlockBegin
2
*PAPER_SPACE
0
ENDBLK
5
1D
100
AcDbEntity
100
AcDbBlockEnd
0
ENDSEC
0
SECTION
2
ENTITIES
0
CIRCLE
5
100
100
AcDbEntity
8
0
100
AcDbCircle
10
-52.983511114307305
20
-52.983511114308698
30
0
40
1.7525999999999975
210
0
220
-0
230
1
0
LWPOLYLINE
5
101
100
AcDbEntity
8
0
100
AcDbPolyline
90
4
70
1
43
0.0
10
-48.717889456800137
20
46.472825426532879
10
-39.737633335731005
20
37.492569305463746
10
-37.492569305463725
20
39.737633335731019
10
-46.472825426532857
20
48.717889456800179
0
CIRCLE
5
102
100
AcDbEntity
8
0
100
AcDbCircle
10
52.983511114307319
20
52.983511114308691
30
0
40
1.7525999999999975
210
0
220
-0
230
1
0
LWPOLYLINE
5
103
100
AcDbEntity
8
0
100
AcDbPolyline
90
4
70
1
43
0.0
10
57.24913277181588
20
59.494196802083117
10
59.49419680208316
20
57.249132771815837
10
68.474452923152299
20
66.229388892884998
10
66.229388892885027
20
68.474452923152271
0
CIRCLE
5
104
100
AcDbEntity
8
0
100
AcDbCircle
10
-52.983511114308691
20
52.983511114307319
30
0
40
1.7525999999999975
210
0
220
-0
230
1
0
LWPOLYLINE
5
105
100
AcDbEntity
8
0
100
AcDbPolyline
90
4
70
1
43
0.0
10
-57.249132771815823
20
59.494196802083167
10
-66.229388892884984
20
68.474452923152299
10
-68.474452923152256
20
66.229388892885041
10
-59.494196802083117
20
57.249132771815866
0
CIRCLE
5
106
100
AcDbEntity
8
0
100
AcDbCircle
10
52.983511114308691
20
-52.983511114307319
30
0
40
1.7525999999999975
210
0
220
-0
230
1
0
LWPOLYLINE
5
107
100
AcDbEntity
8
0
100
AcDbPolyline
90
4
70
1
43
0.0
10
39.737633335731005
20
37.492569305463732
10
48.717889456800172
20
46.47282542653285
10
46.472825426532893
20
48.717889456800151
10
37.492569305463739
20
39.737633335731019
0
LWPOLYLINE
5
108
100
AcDbEntity
8
0
100
AcDbPolyline
90
4
70
1
43
0.0
10
-37.492569305463739
20
-39.737633335731012
10
-39.737633335731005
20
-37.492569305463732
10
-48.717889456800172
20
-46.472825426532864
10
-46.472825426532879
20
-48.717889456800151
0
LWPOLYLINE
5
109
100
AcDbEntity
8
0
100
AcDbPolyline
90
4
70
1
43
0.0
10
39.737633335731005
20
-37.492569305463746
10
37.492569305463725
20
-39.737633335731019
10
46.472825426532857
20
-48.717889456800179
10
48.717889456800137
20
-46.472825426532893
0
LWPOLYLINE
5
110
100
AcDbEntity
8
0
100
AcDbPolyline
90
4
70
1
43
0.0
10
59.494196802083124
20
-57.24913277181588
10
57.249132771815823
20
-59.49419680208316
10
66.229388892884998
20
-68.474452923152299
10
68.474452923152256
20
-66.229388892885041
0
LWPOLYLINE
5
111
100
AcDbEntity
8
0
100
AcDbPolyline
90
4
70
1
43
0.0
10
-59.494196802083152
20
-57.249132771815837
10
-68.474452923152285
20
-66.229388892884998
10
-66.229388892885027
20
-68.474452923152271
10
-57.249132771815866
20
-59.494196802083124
0
LWPOLYLINE
5
112
100
AcDbEntity
8
0
100
AcDbPolyline
90
4
70
1
43
0.0
10
82.549999999976066
20
-82.550000000024752
10
-82.550000000023914
20
-82.550000000024696
10
-82.550000000023942
20
82.549999999975284
10
82.549999999976109
20
82.549999999975256
0
LINE
5
113
100
AcDbEntity
8
0
100
AcDbLine
10
29.299861397552217
20
6.6211630867244065
30
0
11
6.6211630867244073
21
6.6211630867244065
31
0
0
LINE
5
114
100
AcDbEntity
8
0
100
AcDbLine
10
6.6211630867244073
20
6.6211630867244065
30
0
11
6.6211630867244056
21
29.299861397552217
31
0
0
LINE
5
115
100
AcDbEntity
8
0
100
AcDbLine
10
6.6211630867244056
20
29.299861397552217
30
0
11
29.299861397552217
21
29.299861397552217
31
0
0
LINE
5
116
100
AcDbEntity
8
0
100
AcDbLine
10
29.299861397552217
20
29.299861397552217
30
0
11
29.299861397552217
21
6.6211630867244065
31
0
0
LINE
5
117
100
AcDbEntity
8
0
100
AcDbLine
10
29.299861397552217
20
6.6211630867244065
30
0
11
6.6211630867244056
21
29.299861397552217
31
0
0
LINE
5
118
100
AcDbEntity
8
0
100
AcDbLine
10
6.6211630867244073
20
6.6211630867244065
30
0
11
29.299861397552217
21
29.299861397552217
31
0
0
LINE
5
119
100
AcDbEntity
8
0
100
AcDbLine
10
32.47486139755221
20
3.4461630867244142
30
0
11
3.4461630867244075
21
3.4461630867244142
31
0
0
LINE
5
120
100
AcDbEntity
8
0
100
AcDbLine
10
3.4461630867244075
20
3.4461630867244142
30
0
11
3.4461630867244075
21
32.474861397552196
31
0
0
LINE
5
121
100
AcDbEntity
8
0
100
AcDbLine
10
3.4461630867244075
20
32.474861397552196
30
0
11
32.47486139755221
21
32.474861397552196
31
0
0
LINE
5
122
100
AcDbEntity
8
0
100
AcDbLine
10
32.47486139755221
20
32.474861397552196
30
0
11
32.47486139755221
21
3.4461630867244142
31
0
0
LINE
5
123
100
AcDbEntity
8
0
100
AcDbLine
10
32.47486139755221
20
3.4461630867244142
30
0
11
3.4461630867244075
21
32.474861397552196
31
0
0
LINE
5
124
100
AcDbEntity
8
0
100
AcDbLine
10
3.4461630867244075
20
3.4461630867244142
30
0
11
32.47486139755221
21
32.474861397552196
31
0
0
CIRCLE
5
125
100
AcDbEntity
8
0
100
AcDbCircle
10
18.000000268220901
20
5.000000074505806
30
0
40
1.7526000000000002
210
0
220
0
230
1
0
CIRCLE
5
126
100
AcDbEntity
8
0
100
AcDbCircle
10
18.000000268220901
20
31.000000461935997
30
0
40
1.7526000000000002
210
0
220
0
230
1
0
CIRCLE
5
127
100
AcDbEntity
8
0
100
AcDbCircle
10
5.0000000745058051
20
18.000000268220898
30
0
40
1.7526000000000002
210
0
220
0
230
1
0
CIRCLE
5
128
100
AcDbEntity
8
0
100
AcDbCircle
10
31.000000461935997
20
18.000000268220901
30
0
40
1.7526000000000002
210
0
220
0
230
1
0
LWPOLYLINE
5
129
100
AcDbEntity
8
0
100
AcDbPolyline
90
4
70
1
43
0.0
10
39.737633335731005
20
-37.492569305463746
10
37.492569305463725
20
-39.737633335731019
10
46.472825426532857
20
-48.717889456800179
10
48.717889456800137
20
-46.472825426532893
0
LWPOLYLINE
5
130
100
AcDbEntity
8
0
100
AcDbPolyline
90
4
70
1
43
0.0
10
59.494196802083152
20
57.249132771815837
10
57.249132771815866
20
59.494196802083124
10
66.229388892885027
20
68.474452923152271
10
68.474452923152285
20
66.229388892884998
0
LINE
5
131
100
AcDbEntity
8
0
100
AcDbLine
10
82.550000000023914
20
82.55000000002471
30
0
11
-82.549999999976109
21
-82.549999999975256
31
0
0
LINE
5
132
100
AcDbEntity
8
0
100
AcDbLine
10
48.717889456800172
20
46.472825426532864
30
0
11
39.737633335731005
21
37.492569305463732
31
0
0
LWPOLYLINE
5
133
100
AcDbEntity
8
0
100
AcDbPolyline
90
4
70
1
43
0.0
10
-48.717889456800179
20
-46.472825426532857
10
-46.472825426532893
20
-48.717889456800137
10
-37.492569305463739
20
-39.737633335731005
10
-39.737633335731012
20
-37.492569305463725
0
LINE
5
134
100
AcDbEntity
8
0
100
AcDbLine
10
39.737633335731005
20
37.492569305463732
30
0
11
37.492569305463739
21
39.737633335731012
31
0
0
LWPOLYLINE
5
135
100
AcDbEntity
8
0
100
AcDbPolyline
90
4
70
1
43
0.0
10
-68.474452923152299
20
-66.229388892884998
10
-59.49419680208316
20
-57.249132771815823
10
-57.24913277181588
20
-59.494196802083117
10
-66.229388892885027
20
-68.474452923152271
0
LINE
5
136
100
AcDbEntity
8
0
100
AcDbLine
10
46.472825426532879
20
48.717889456800151
30
0
11
48.717889456800172
21
46.472825426532864
31
0
0
CIRCLE
5
137
100
AcDbEntity
8
0
100
AcDbCircle
10
-52.983511114308691
20
52.983511114307319
30
0
40
1.7526000000000002
210
0
220
0
230
1
0
LWPOLYLINE
5
138
100
AcDbEntity
8
0
100
AcDbPolyline
90
4
70
1
43
0.0
10
-59.494196802083117
20
57.24913277181588
10
-68.474452923152256
20
66.229388892885041
10
-66.229388892884984
20
68.474452923152299
10
-57.249132771815823
20
59.49419680208316
0
LINE
5
139
100
AcDbEntity
8
0
100
AcDbLine
10
39.737633335731005
20
37.492569305463732
30
0
11
46.472825426532879
21
48.717889456800151
31
0
0
LWPOLYLINE
5
140
100
AcDbEntity
8
0
100
AcDbPolyline
90
4
70
1
43
0.0
10
-37.492569305463725
20
39.737633335731019
10
-46.472825426532857
20
48.717889456800179
10
-48.717889456800137
20
46.472825426532893
10
-39.737633335731005
20
37.492569305463746
0
LINE
5
141
100
AcDbEntity
8
0
100
AcDbLine
10
-82.549999999976109
20
-82.549999999975256
30
0
11
82.550000000023914
21
-82.549999999975284
31
0
0
LINE
5
142
100
AcDbEntity
8
0
100
AcDbLine
10
-82.549999999976095
20
2.4725448349583986e-11
30
0
11
82.550000000023914
21
2.4735388315101333e-11
31
0
0
LINE
5
143
100
AcDbEntity
8
0
100
AcDbLine
10
82.550000000023914
20
-82.549999999975284
30
0
11
82.550000000023914
21
82.55000000002471
31
0
0
CIRCLE
5
144
100
AcDbEntity
8
0
100
AcDbCircle
10
52.983511114308691
20
-52.983511114307319
30
0
40
1.7526000000000002
210
0
220
0
230
1
0
LINE
5
145
100
AcDbEntity
8
0
100
AcDbLine
10
-82.549999999976066
20
82.550000000024752
30
0
11
82.550000000023914
21
-82.549999999975284
31
0
0
LINE
5
146
100
AcDbEntity
8
0
100
AcDbLine
10
82.550000000023914
20
82.55000000002471
30
0
11
-82.549999999976066
21
82.550000000024752
31
0
0
LINE
5
147
100
AcDbEntity
8
0
100
AcDbLine
10
37.492569305463739
20
39.737633335731012
30
0
11
48.717889456800172
21
46.472825426532864
31
0
0
CIRCLE
5
148
100
AcDbEntity
8
0
100
AcDbCircle
10
-52.983511114307319
20
-52.983511114308691
30
0
40
1.7526000000000002
210
0
220
0
230
1
0
CIRCLE
5
149
100
AcDbEntity
8
0
100
AcDbCircle
10
52.983511114307305
20
52.983511114308698
30
0
40
1.7526000000000002
210
0
220
0
230
1
0
LINE
5
150
100
AcDbEntity
8
0
100
AcDbLine
10
37.492569305463739
20
39.737633335731012
30
0
11
46.472825426532879
21
48.717889456800151
31
0
0
LWPOLYLINE
5
151
100
AcDbEntity
8
0
100
AcDbPolyline
90
4
70
1
43
0.0
10
57.249132771815823
20
-59.49419680208316
10
59.494196802083117
20
-57.24913277181588
10
68.474452923152256
20
-66.229388892885041
10
66.229388892884984
20
-68.474452923152299
0
LINE
5
152
100
AcDbEntity
8
0
100
AcDbLine
10
-82.549999999976066
20
82.550000000024752
30
0
11
-82.549999999976109
21
-82.549999999975256
31
0
0
LINE
5
153
100
AcDbEntity
8
0
100
AcDbLine
10
2.3930899943904143e-11
20
82.550000000024738
30
0
11
2.389570882085115e-11
21
-82.549999999975284
31
0
0
ENDSEC
0
SECTION
2
OBJECTS
0
DICTIONARY
5
C
100
AcDbDictionary
3
ACAD_GROUP
350
D
3
ACAD_MLINESTYLE
350
17
0
DICTIONARY
5
D
100
AcDbDictionary
0
DICTIONARY
5
1A
330
C
100
AcDbDictionary
0
DICTIONARY
5
17
100
AcDbDictionary
0
ENDSEC
0
EOF
