0
SECTION
2
HEADER
9
$INSUNITS
70
4
9
$ACADVER
1
AC1014
9
$HANDSEED
5
FFFF
0
ENDSEC
0
SECTION
2
TABLES
0
TABLE
2
VPORT
5
8
100
AcDbSymbolTable
0
ENDTAB
0
TABLE
2
LTYPE
5
5
100
AcDbSymbolTable
0
LTYPE
5
14
100
AcDbSymbolTableRecord
100
AcDbLinetypeTableRecord
2
BYBLOCK
70
0
0
LTYPE
5
15
100
AcDbSymbolTableRecord
100
AcDbLinetypeTableRecord
2
BYLAYER
70
0
0
ENDTAB
0
TABLE
2
LAYER
5
2
100
AcDbSymbolTable
70
2
0
LAYER
5
50
100
AcDbSymbolTableRecord
100
AcDbLayerTableRecord
2
0
70
0
6
CONTINUOUS
0
ENDTAB
0
TABLE
2
STYLE
5
3
100
AcDbSymbolTable
70
1
0
STYLE
5
11
100
AcDbSymbolTableRecord
100
AcDbTextStyleTableRecord
2
STANDARD
70
0
0
ENDTAB
0
TABLE
2
VIEW
5
6
100
AcDbSymbolTable
70
0
0
ENDTAB
0
TABLE
2
UCS
5
7
100
AcDbSymbolTable
70
0
0
ENDTAB
0
TABLE
2
APPID
5
9
100
AcDbSymbolTable
70
2
0
APPID
5
12
100
AcDbSymbolTableRecord
100
AcDbRegAppTableRecord
2
ACAD
70
0
0
ENDTAB
0
TABLE
2
DIMSTYLE
5
A
100
AcDbSymbolTable
70
1
0
ENDTAB
0
TABLE
2
BLOCK_RECORD
5
1
100
AcDbSymbolTable
70
1
0
BLOCK_RECORD
5
1F
100
AcDbSymbolTableRecord
100
AcDbBlockTableRecord
2
*MODEL_SPACE
0
BLOCK_RECORD
5
1B
100
AcDbSymbolTableRecord
100
AcDbBlockTableRecord
2
*PAPER_SPACE
0
ENDTAB
0
ENDSEC
0
SECTION
2
BLOCKS
0
BLOCK
5
20
100
AcDbEntity
100
AcDbBlockBegin
2
*MODEL_SPACE
0
ENDBLK
5
21
100
AcDbEntity
100
AcDbBlockEnd
0
BLOCK
5
1C
100
AcDbEntity
100
AcDbBlockBegin
2
*PAPER_SPACE
0
ENDBLK
5
1D
100
AcDbEntity
100
AcDbBlockEnd
0
ENDSEC
0
SECTION
2
ENTITIES
0
LWPOLYLINE
5
100
100
AcDbEntity
8
0
100
AcDbPolyline
90
25
70
1
43
0.0
10
-50.799999999999997
20
25.000000000000124
10
-60.960000000000001
20
25.000000000000181
10
-60.960000000000022
20
2.7855000000001784
10
60.952774844687305
20
2.7855000000002494
10
60.952774844687283
20
25.000000000000181
10
50.792774844687287
20
25.000000000000124
10
50.792774844687287
20
28.175000000000029
10
25.392774844687288
20
28.175000000000008
10
25.392774844687285
20
25.000000000000014
10
1.7489874223435682
20
24.999999999999932
10
1.7489874223436321
20
20.624800000000008
10
3.7809874223436331
20
20.62480000000004
10
3.7809874223436655
20
18.084800000000058
10
1.7489874223436206
20
18.084800000000023
10
1.7489874223436583
20
15.367000000000035
10
8.8817841970012523e-15
20
15.366999999999997
10
-1.7562125776563224
20
15.367000000000019
10
-1.7562125776563642
20
18.084800000000037
10
-3.7882125776563251
20
18.084800000000016
10
-3.7882125776563607
20
20.624799999999937
10
-1.7562125776563431
20
20.624800000000008
10
-1.7562125776564219
20
24.999999999999915
10
-25.399999999999991
20
25.000000000000007
10
-25.399999999999995
20
28.175000000000004
10
-50.799999999999997
20
28.175000000000026
0
LINE
5
101
100
AcDbEntity
8
0
100
AcDbLine
10
-0.0036125776563850076
20
24.999999999999837
30
0
11
-0.0036125776563550316
21
-25.399999999999991
31
0
0
LINE
5
102
100
AcDbEntity
8
0
100
AcDbLine
10
-60.959999999999972
20
-19.428999999999824
30
0
11
-50.799999999999976
21
-19.42899999999976
31
0
0
LINE
5
103
100
AcDbEntity
8
0
100
AcDbLine
10
-25.399999999999963
20
-19.428999999999608
30
0
11
-25.399999999999963
21
-22.603999999999601
31
0
0
LINE
5
104
100
AcDbEntity
8
0
100
AcDbLine
10
-25.399999999999963
20
-19.428999999999608
30
0
11
-1.7562125776563953
21
-19.428999999999487
31
0
0
LINE
5
105
100
AcDbEntity
8
0
100
AcDbLine
10
-1.7562125776563953
20
-19.428999999999487
30
0
11
-1.7562125776563242
21
-15.05379999999958
31
0
0
LINE
5
106
100
AcDbEntity
8
0
100
AcDbLine
10
-3.7882125776563402
20
-15.053799999999512
30
0
11
-3.7882125776563047
21
-12.513799999999593
31
0
0
LINE
5
107
100
AcDbEntity
8
0
100
AcDbLine
10
-3.7882125776563047
20
-12.513799999999593
30
0
11
-1.756212577656342
21
-12.513799999999611
31
0
0
LINE
5
108
100
AcDbEntity
8
0
100
AcDbLine
10
60.952774844687298
20
2.7855000000002494
30
0
11
60.952774844687312
21
-19.428999999999682
31
0
0
LINE
5
109
100
AcDbEntity
8
0
100
AcDbLine
10
-50.799999999999976
20
-22.603999999999658
30
0
11
-50.799999999999976
21
-19.42899999999976
31
0
0
LINE
5
110
100
AcDbEntity
8
0
100
AcDbLine
10
60.952774844687312
20
-19.428999999999682
30
0
11
50.792774844687294
21
-19.428999999999633
31
0
0
LINE
5
111
100
AcDbEntity
8
0
100
AcDbLine
10
3.7809874223436513
20
-15.053799999999606
30
0
11
3.7809874223436868
21
-12.513799999999627
31
0
0
LINE
5
112
100
AcDbEntity
8
0
100
AcDbLine
10
3.7809874223436868
20
-12.513799999999627
30
0
11
1.7489874223436352
21
-12.513799999999595
31
0
0
LINE
5
113
100
AcDbEntity
8
0
100
AcDbLine
10
-1.7562125776563065
20
-9.7959999999995908
30
0
11
2.6645352591003757e-14
21
-9.7959999999995695
31
0
0
LINE
5
114
100
AcDbEntity
8
0
100
AcDbLine
10
-1.7562125776563242
20
-15.05379999999958
30
0
11
-3.7882125776563402
21
-15.053799999999512
31
0
0
LINE
5
115
100
AcDbEntity
8
0
100
AcDbLine
10
-25.399999999999963
20
-22.603999999999601
30
0
11
-50.799999999999976
21
-22.603999999999658
31
0
0
LINE
5
116
100
AcDbEntity
8
0
100
AcDbLine
10
25.392774844687303
20
-19.428999999999558
30
0
11
1.7489874223435908
21
-19.428999999999505
31
0
0
LINE
5
117
100
AcDbEntity
8
0
100
AcDbLine
10
1.7489874223436797
20
-9.7959999999996068
30
0
11
2.6645352591003757e-14
21
-9.7959999999995695
31
0
0
LINE
5
118
100
AcDbEntity
8
0
100
AcDbLine
10
25.392774844687303
20
-19.428999999999558
30
0
11
25.39277484468732
21
-22.603999999999552
31
0
0
LINE
5
119
100
AcDbEntity
8
0
100
AcDbLine
10
1.7489874223435908
20
-19.428999999999505
30
0
11
1.748987422343653
21
-15.05379999999958
31
0
0
LINE
5
120
100
AcDbEntity
8
0
100
AcDbLine
10
1.7489874223436352
20
-12.513799999999595
30
0
11
1.7489874223436797
21
-9.7959999999996068
31
0
0
LINE
5
121
100
AcDbEntity
8
0
100
AcDbLine
10
25.39277484468732
20
-22.603999999999552
30
0
11
50.792774844687315
21
-22.603999999999541
31
0
0
LINE
5
122
100
AcDbEntity
8
0
100
AcDbLine
10
50.792774844687315
20
-22.603999999999541
30
0
11
50.792774844687294
21
-19.428999999999633
31
0
0
LINE
5
123
100
AcDbEntity
8
0
100
AcDbLine
10
1.748987422343653
20
-15.05379999999958
30
0
11
3.7809874223436513
21
-15.053799999999606
31
0
0
LINE
5
124
100
AcDbEntity
8
0
100
AcDbLine
10
-60.960000000000022
20
2.7855000000001784
30
0
11
-60.959999999999972
21
-19.428999999999824
31
0
0
LINE
5
125
100
AcDbEntity
8
0
100
AcDbLine
10
-1.756212577656342
20
-12.513799999999611
30
0
11
-1.7562125776563065
21
-9.7959999999995908
31
0
0
CIRCLE
5
126
100
AcDbEntity
8
0
100
AcDbCircle
10
0
20
-7.9389562913645406e-05
30
0
40
6.3499999999999996
210
0
220
0
230
1
0
ENDSEC
0
SECTION
2
OBJECTS
0
DICTIONARY
5
C
100
AcDbDictionary
3
ACAD_GROUP
350
D
3
ACAD_MLINESTYLE
350
17
0
DICTIONARY
5
D
100
AcDbDictionary
0
DICTIONARY
5
1A
330
C
100
AcDbDictionary
0
DICTIONARY
5
17
100
AcDbDictionary
0
ENDSEC
0
EOF
