0
SECTION
2
HEADER
9
$INSUNITS
70
4
9
$ACADVER
1
AC1014
9
$HANDSEED
5
FFFF
0
ENDSEC
0
SECTION
2
TABLES
0
TABLE
2
VPORT
5
8
100
AcDbSymbolTable
0
ENDTAB
0
TABLE
2
LTYPE
5
5
100
AcDbSymbolTable
0
LTYPE
5
14
100
AcDbSymbolTableRecord
100
AcDbLinetypeTableRecord
2
BYBLOCK
70
0
0
LTYPE
5
15
100
AcDbSymbolTableRecord
100
AcDbLinetypeTableRecord
2
BYLAYER
70
0
0
ENDTAB
0
TABLE
2
LAYER
5
2
100
AcDbSymbolTable
70
2
0
LAYER
5
50
100
AcDbSymbolTableRecord
100
AcDbLayerTableRecord
2
0
70
0
6
CONTINUOUS
0
ENDTAB
0
TABLE
2
STYLE
5
3
100
AcDbSymbolTable
70
1
0
STYLE
5
11
100
AcDbSymbolTableRecord
100
AcDbTextStyleTableRecord
2
STANDARD
70
0
0
ENDTAB
0
TABLE
2
VIEW
5
6
100
AcDbSymbolTable
70
0
0
ENDTAB
0
TABLE
2
UCS
5
7
100
AcDbSymbolTable
70
0
0
ENDTAB
0
TABLE
2
APPID
5
9
100
AcDbSymbolTable
70
2
0
APPID
5
12
100
AcDbSymbolTableRecord
100
AcDbRegAppTableRecord
2
ACAD
70
0
0
ENDTAB
0
TABLE
2
DIMSTYLE
5
A
100
AcDbSymbolTable
70
1
0
ENDTAB
0
TABLE
2
BLOCK_RECORD
5
1
100
AcDbSymbolTable
70
1
0
BLOCK_RECORD
5
1F
100
AcDbSymbolTableRecord
100
AcDbBlockTableRecord
2
*MODEL_SPACE
0
BLOCK_RECORD
5
1B
100
AcDbSymbolTableRecord
100
AcDbBlockTableRecord
2
*PAPER_SPACE
0
ENDTAB
0
ENDSEC
0
SECTION
2
BLOCKS
0
BLOCK
5
20
100
AcDbEntity
100
AcDbBlockBegin
2
*MODEL_SPACE
0
ENDBLK
5
21
100
AcDbEntity
100
AcDbBlockEnd
0
BLOCK
5
1C
100
AcDbEntity
100
AcDbBlockBegin
2
*PAPER_SPACE
0
ENDBLK
5
1D
100
AcDbEntity
100
AcDbBlockEnd
0
ENDSEC
0
SECTION
2
ENTITIES
0
LINE
5
100
100
AcDbEntity
8
0
100
AcDbLine
10
-42.481499999999997
20
25.400000000000006
30
0
11
42.481499999999997
21
-25.399999999999991
31
0
0
LINE
5
101
100
AcDbEntity
8
0
100
AcDbLine
10
42.481500000000011
20
25.400000000000006
30
0
11
-42.48149999999999
21
-25.399999999999991
31
0
0
LINE
5
102
100
AcDbEntity
8
0
100
AcDbLine
10
-12.699999999999999
20
-25.399999999999991
30
0
11
-12.699999999999999
21
-28.574999999999989
31
0
0
LINE
5
103
100
AcDbEntity
8
0
100
AcDbLine
10
-12.699999999999999
20
-28.574999999999989
30
0
11
-25.400000000000006
21
-28.574999999999989
31
0
0
LINE
5
104
100
AcDbEntity
8
0
100
AcDbLine
10
-25.400000000000006
20
-28.574999999999989
30
0
11
-25.400000000000006
21
-25.399999999999991
31
0
0
LINE
5
105
100
AcDbEntity
8
0
100
AcDbLine
10
8.8817841970012523e-15
20
25.400000000000006
30
0
11
8.8817841970012523e-15
21
-25.399999999999991
31
0
0
LINE
5
106
100
AcDbEntity
8
0
100
AcDbLine
10
12.700000000000017
20
-25.399999999999995
30
0
11
12.700000000000017
21
-28.574999999999985
31
0
0
LINE
5
107
100
AcDbEntity
8
0
100
AcDbLine
10
12.700000000000017
20
-28.574999999999985
30
0
11
25.400000000000023
21
-28.574999999999985
31
0
0
LINE
5
108
100
AcDbEntity
8
0
100
AcDbLine
10
25.400000000000023
20
-28.574999999999985
30
0
11
25.400000000000023
21
-25.399999999999995
31
0
0
LINE
5
109
100
AcDbEntity
8
0
100
AcDbLine
10
-25.400000000000006
20
-25.399999999999991
30
0
11
-42.48149999999999
21
-25.399999999999991
31
0
0
LINE
5
110
100
AcDbEntity
8
0
100
AcDbLine
10
39.179500000000004
20
-25.399999999999991
30
0
11
25.400000000000023
21
-25.399999999999995
31
0
0
LINE
5
111
100
AcDbEntity
8
0
100
AcDbLine
10
-42.48149999999999
20
8.8817841970012523e-15
30
0
11
42.481500000000011
21
4.4408920985006262e-15
31
0
0
LINE
5
112
100
AcDbEntity
8
0
100
AcDbLine
10
-25.399999999999999
20
28.57500000000001
30
0
11
-25.399999999999999
21
25.400000000000009
31
0
0
LINE
5
113
100
AcDbEntity
8
0
100
AcDbLine
10
-12.699999999999996
20
28.57500000000001
30
0
11
-25.399999999999999
21
28.57500000000001
31
0
0
LINE
5
114
100
AcDbEntity
8
0
100
AcDbLine
10
-12.699999999999996
20
25.400000000000009
30
0
11
-12.699999999999996
21
28.57500000000001
31
0
0
LINE
5
115
100
AcDbEntity
8
0
100
AcDbLine
10
12.700000000000014
20
25.400000000000006
30
0
11
12.700000000000014
21
28.574999999999996
31
0
0
LINE
5
116
100
AcDbEntity
8
0
100
AcDbLine
10
12.700000000000014
20
28.574999999999996
30
0
11
25.400000000000027
21
28.574999999999996
31
0
0
LINE
5
117
100
AcDbEntity
8
0
100
AcDbLine
10
25.400000000000027
20
28.574999999999996
30
0
11
25.400000000000027
21
25.400000000000006
31
0
0
LINE
5
118
100
AcDbEntity
8
0
100
AcDbLine
10
-42.481499999999997
20
25.400000000000006
30
0
11
-25.399999999999999
21
25.400000000000009
31
0
0
LINE
5
119
100
AcDbEntity
8
0
100
AcDbLine
10
25.400000000000027
20
25.400000000000006
30
0
11
39.179500000000004
21
25.400000000000006
31
0
0
LINE
5
120
100
AcDbEntity
8
0
100
AcDbLine
10
-42.48149999999999
20
16.510000000000009
30
0
11
-39.17949999999999
21
16.510000000000009
31
0
0
LINE
5
121
100
AcDbEntity
8
0
100
AcDbLine
10
-39.17949999999999
20
16.510000000000009
30
0
11
-39.17949999999999
21
6.3500000000000085
31
0
0
LINE
5
122
100
AcDbEntity
8
0
100
AcDbLine
10
-39.17949999999999
20
6.3500000000000085
30
0
11
-42.48149999999999
21
6.3500000000000085
31
0
0
LINE
5
123
100
AcDbEntity
8
0
100
AcDbLine
10
-42.48149999999999
20
-16.509999999999991
30
0
11
-39.17949999999999
21
-16.509999999999991
31
0
0
LINE
5
124
100
AcDbEntity
8
0
100
AcDbLine
10
-39.17949999999999
20
-16.509999999999991
30
0
11
-39.17949999999999
21
-6.3499999999999908
31
0
0
LINE
5
125
100
AcDbEntity
8
0
100
AcDbLine
10
-39.17949999999999
20
-6.3499999999999908
30
0
11
-42.48149999999999
21
-6.3499999999999908
31
0
0
LINE
5
126
100
AcDbEntity
8
0
100
AcDbLine
10
-42.48149999999999
20
16.510000000000009
30
0
11
-42.481499999999997
21
25.400000000000006
31
0
0
LINE
5
127
100
AcDbEntity
8
0
100
AcDbLine
10
-42.48149999999999
20
-25.399999999999991
30
0
11
-42.48149999999999
21
-16.509999999999991
31
0
0
LINE
5
128
100
AcDbEntity
8
0
100
AcDbLine
10
-42.48149999999999
20
-6.3499999999999908
30
0
11
-42.48149999999999
21
6.3500000000000085
31
0
0
LINE
5
129
100
AcDbEntity
8
0
100
AcDbLine
10
42.481500000000011
20
16.510000000000009
30
0
11
39.179500000000004
21
16.510000000000009
31
0
0
LINE
5
130
100
AcDbEntity
8
0
100
AcDbLine
10
39.179500000000004
20
6.3500000000000085
30
0
11
42.481500000000011
21
6.3500000000000085
31
0
0
LINE
5
131
100
AcDbEntity
8
0
100
AcDbLine
10
39.179500000000004
20
-6.3499999999999934
30
0
11
42.481500000000011
21
-6.3499999999999934
31
0
0
LINE
5
132
100
AcDbEntity
8
0
100
AcDbLine
10
42.481500000000011
20
-16.509999999999994
30
0
11
39.179500000000004
21
-16.509999999999994
31
0
0
LINE
5
133
100
AcDbEntity
8
0
100
AcDbLine
10
39.179500000000004
20
-25.399999999999991
30
0
11
39.179500000000004
21
-16.509999999999994
31
0
0
LINE
5
134
100
AcDbEntity
8
0
100
AcDbLine
10
39.179500000000004
20
25.400000000000006
30
0
11
39.179500000000004
21
16.510000000000009
31
0
0
LINE
5
135
100
AcDbEntity
8
0
100
AcDbLine
10
39.179500000000004
20
6.3500000000000085
30
0
11
39.179500000000004
21
-6.3499999999999934
31
0
0
LINE
5
136
100
AcDbEntity
8
0
100
AcDbLine
10
39.179500000000004
20
-6.3499999999999934
30
0
11
39.179500000000004
21
6.3500000000000085
31
0
0
LINE
5
137
100
AcDbEntity
8
0
100
AcDbLine
10
39.179500000000004
20
16.510000000000009
30
0
11
39.179500000000004
21
25.400000000000006
31
0
0
LINE
5
138
100
AcDbEntity
8
0
100
AcDbLine
10
42.481500000000011
20
16.510000000000009
30
0
11
42.481500000000011
21
6.3500000000000085
31
0
0
LINE
5
139
100
AcDbEntity
8
0
100
AcDbLine
10
42.481500000000011
20
-6.3499999999999934
30
0
11
42.481500000000011
21
-16.509999999999994
31
0
0
LINE
5
140
100
AcDbEntity
8
0
100
AcDbLine
10
1.752600000000009
20
-15.366999999999988
30
0
11
8.8817841970012523e-15
21
-15.366999999999988
31
0
0
LINE
5
141
100
AcDbEntity
8
0
100
AcDbLine
10
1.752600000000009
20
-20.62479999999999
30
0
11
3.7846000000000091
21
-20.62479999999999
31
0
0
LINE
5
142
100
AcDbEntity
8
0
100
AcDbLine
10
3.7846000000000091
20
-20.62479999999999
30
0
11
3.7846000000000091
21
-18.084799999999991
31
0
0
LINE
5
143
100
AcDbEntity
8
0
100
AcDbLine
10
3.7846000000000091
20
-18.084799999999991
30
0
11
1.752600000000009
21
-18.084799999999991
31
0
0
LINE
5
144
100
AcDbEntity
8
0
100
AcDbLine
10
1.752600000000009
20
-25.399999999999991
30
0
11
1.752600000000009
21
-20.62479999999999
31
0
0
LINE
5
145
100
AcDbEntity
8
0
100
AcDbLine
10
1.752600000000009
20
-18.084799999999991
30
0
11
1.752600000000009
21
-15.366999999999988
31
0
0
LINE
5
146
100
AcDbEntity
8
0
100
AcDbLine
10
-1.7525999999999913
20
-15.366999999999983
30
0
11
8.8817841970012523e-15
21
-15.366999999999983
31
0
0
LINE
5
147
100
AcDbEntity
8
0
100
AcDbLine
10
-1.7525999999999913
20
-18.084799999999991
30
0
11
-1.7525999999999913
21
-15.366999999999983
31
0
0
LINE
5
148
100
AcDbEntity
8
0
100
AcDbLine
10
-3.7845999999999913
20
-18.084799999999991
30
0
11
-1.7525999999999913
21
-18.084799999999991
31
0
0
LINE
5
149
100
AcDbEntity
8
0
100
AcDbLine
10
-3.7845999999999913
20
-20.624799999999993
30
0
11
-3.7845999999999913
21
-18.084799999999991
31
0
0
LINE
5
150
100
AcDbEntity
8
0
100
AcDbLine
10
-1.7525999999999913
20
-20.624799999999993
30
0
11
-3.7845999999999913
21
-20.624799999999993
31
0
0
LINE
5
151
100
AcDbEntity
8
0
100
AcDbLine
10
-1.7525999999999913
20
-25.399999999999995
30
0
11
-1.7525999999999913
21
-20.624799999999993
31
0
0
LINE
5
152
100
AcDbEntity
8
0
100
AcDbLine
10
12.700000000000017
20
-25.399999999999995
30
0
11
1.752600000000009
21
-25.399999999999991
31
0
0
LINE
5
153
100
AcDbEntity
8
0
100
AcDbLine
10
-1.7525999999999913
20
-25.399999999999995
30
0
11
-12.699999999999999
21
-25.399999999999991
31
0
0
LINE
5
154
100
AcDbEntity
8
0
100
AcDbLine
10
-1.7525999999999886
20
25.400000000000013
30
0
11
-1.7525999999999886
21
20.624800000000011
31
0
0
LINE
5
155
100
AcDbEntity
8
0
100
AcDbLine
10
-1.7525999999999886
20
20.624800000000011
30
0
11
-3.7845999999999913
21
20.624800000000011
31
0
0
LINE
5
156
100
AcDbEntity
8
0
100
AcDbLine
10
-3.7845999999999913
20
20.624800000000011
30
0
11
-3.7845999999999913
21
18.084800000000001
31
0
0
LINE
5
157
100
AcDbEntity
8
0
100
AcDbLine
10
-3.7845999999999913
20
18.084800000000001
30
0
11
-1.7525999999999886
21
18.084800000000001
31
0
0
LINE
5
158
100
AcDbEntity
8
0
100
AcDbLine
10
-1.7525999999999886
20
18.084800000000001
30
0
11
-1.7525999999999886
21
15.366999999999997
31
0
0
LINE
5
159
100
AcDbEntity
8
0
100
AcDbLine
10
1.7526000000000064
20
15.367000000000001
30
0
11
8.8817841970012523e-15
21
15.367000000000001
31
0
0
LINE
5
160
100
AcDbEntity
8
0
100
AcDbLine
10
-1.7525999999999886
20
15.366999999999997
30
0
11
8.8817841970012523e-15
21
15.366999999999997
31
0
0
LINE
5
161
100
AcDbEntity
8
0
100
AcDbLine
10
1.7526000000000064
20
18.084800000000001
30
0
11
1.7526000000000064
21
15.367000000000001
31
0
0
LINE
5
162
100
AcDbEntity
8
0
100
AcDbLine
10
3.7846000000000046
20
18.084800000000001
30
0
11
1.7526000000000064
21
18.084800000000001
31
0
0
LINE
5
163
100
AcDbEntity
8
0
100
AcDbLine
10
3.7846000000000046
20
20.6248
30
0
11
3.7846000000000046
21
18.084800000000001
31
0
0
LINE
5
164
100
AcDbEntity
8
0
100
AcDbLine
10
1.7526000000000064
20
20.6248
30
0
11
3.7846000000000046
21
20.6248
31
0
0
LINE
5
165
100
AcDbEntity
8
0
100
AcDbLine
10
1.7526000000000064
20
25.399999999999999
30
0
11
1.7526000000000064
21
20.6248
31
0
0
LINE
5
166
100
AcDbEntity
8
0
100
AcDbLine
10
-12.699999999999996
20
25.400000000000009
30
0
11
-1.7525999999999886
21
25.400000000000013
31
0
0
LINE
5
167
100
AcDbEntity
8
0
100
AcDbLine
10
1.7526000000000064
20
25.399999999999999
30
0
11
12.700000000000014
21
25.400000000000006
31
0
0
ENDSEC
0
SECTION
2
OBJECTS
0
DICTIONARY
5
C
100
AcDbDictionary
3
ACAD_GROUP
350
D
3
ACAD_MLINESTYLE
350
17
0
DICTIONARY
5
D
100
AcDbDictionary
0
DICTIONARY
5
1A
330
C
100
AcDbDictionary
0
DICTIONARY
5
17
100
AcDbDictionary
0
ENDSEC
0
EOF
