0
SECTION
2
HEADER
9
$INSUNITS
70
1
9
$ACADVER
1
AC1014
9
$HANDSEED
5
FFFF
0
ENDSEC
0
SECTION
2
TABLES
0
TABLE
2
VPORT
5
8
100
AcDbSymbolTable
0
ENDTAB
0
TABLE
2
LTYPE
5
5
100
AcDbSymbolTable
0
LTYPE
5
14
100
AcDbSymbolTableRecord
100
AcDbLinetypeTableRecord
2
BYBLOCK
70
0
0
LTYPE
5
15
100
AcDbSymbolTableRecord
100
AcDbLinetypeTableRecord
2
BYLAYER
70
0
0
ENDTAB
0
TABLE
2
LAYER
5
2
100
AcDbSymbolTable
70
2
0
LAYER
5
50
100
AcDbSymbolTableRecord
100
AcDbLayerTableRecord
2
0
70
0
6
CONTINUOUS
0
ENDTAB
0
TABLE
2
STYLE
5
3
100
AcDbSymbolTable
70
1
0
STYLE
5
11
100
AcDbSymbolTableRecord
100
AcDbTextStyleTableRecord
2
STANDARD
70
0
0
ENDTAB
0
TABLE
2
VIEW
5
6
100
AcDbSymbolTable
70
0
0
ENDTAB
0
TABLE
2
UCS
5
7
100
AcDbSymbolTable
70
0
0
ENDTAB
0
TABLE
2
APPID
5
9
100
AcDbSymbolTable
70
2
0
APPID
5
12
100
AcDbSymbolTableRecord
100
AcDbRegAppTableRecord
2
ACAD
70
0
0
ENDTAB
0
TABLE
2
DIMSTYLE
5
A
100
AcDbSymbolTable
70
1
0
ENDTAB
0
TABLE
2
BLOCK_RECORD
5
1
100
AcDbSymbolTable
70
1
0
BLOCK_RECORD
5
1F
100
AcDbSymbolTableRecord
100
AcDbBlockTableRecord
2
*MODEL_SPACE
0
BLOCK_RECORD
5
1B
100
AcDbSymbolTableRecord
100
AcDbBlockTableRecord
2
*PAPER_SPACE
0
ENDTAB
0
ENDSEC
0
SECTION
2
BLOCKS
0
BLOCK
5
20
100
AcDbEntity
100
AcDbBlockBegin
2
*MODEL_SPACE
0
ENDBLK
5
21
100
AcDbEntity
100
AcDbBlockEnd
0
BLOCK
5
1C
100
AcDbEntity
100
AcDbBlockBegin
2
*PAPER_SPACE
0
ENDBLK
5
1D
100
AcDbEntity
100
AcDbBlockEnd
0
ENDSEC
0
SECTION
2
ENTITIES
0
LWPOLYLINE
5
100
100
AcDbEntity
8
0
100
AcDbPolyline
90
5
70
1
43
0.0
10
2.8531695488854605
20
0.92705098312484313
10
1.7633557568774201
20
-2.4270509831248419
10
-1.7633557568774187
20
-2.4270509831248419
10
-2.8531695488854605
20
0.9270509831248418
10
0
20
3.0000000000000009
0
LINE
5
101
100
AcDbEntity
8
0
100
AcDbLine
10
0
20
0
30
0
11
1.4265847744427302
21
1.9635254915624223
31
0
0
CIRCLE
5
102
100
AcDbEntity
8
0
100
AcDbCircle
10
1.3160811470117455
20
1.8114302966199323
30
0
40
0.069000000000000034
210
0
220
0
230
1
0
LWPOLYLINE
5
103
100
AcDbEntity
8
0
100
AcDbPolyline
90
4
70
1
43
0.0
10
0.94860312071869712
20
2.1562909934117904
10
0.54409462353122295
20
2.4501836195580271
10
0.47062146699466417
20
2.3490564952611588
10
0.87512996418213795
20
2.0551638691149217
0
LWPOLYLINE
5
104
100
AcDbEntity
8
0
100
AcDbPolyline
90
4
70
1
43
0.0
10
2.1621286122811201
20
1.2746131149730804
10
2.0886554557445605
20
1.1734859906762121
10
1.6841469585570861
20
1.4673786168224487
10
1.757620115093645
20
1.5685057411193171
0
LINE
5
105
100
AcDbEntity
8
0
100
AcDbLine
10
0
20
3.0000000000000009
30
0
11
0
21
0
31
0
0
CIRCLE
5
106
100
AcDbEntity
8
0
100
AcDbCircle
10
-1.3160811470117455
20
1.8114302966199323
30
0
40
0.069000000000000034
210
0
220
0
230
1
0
LWPOLYLINE
5
107
100
AcDbEntity
8
0
100
AcDbPolyline
90
4
70
1
43
0.0
10
-0.87512996418213795
20
2.0551638691149217
10
-0.94860312071869712
20
2.1562909934117904
10
-0.54409462353122295
20
2.4501836195580271
10
-0.47062146699466417
20
2.3490564952611588
0
LWPOLYLINE
5
108
100
AcDbEntity
8
0
100
AcDbPolyline
90
4
70
1
43
0.0
10
-1.6841469585570861
20
1.4673786168224487
10
-1.757620115093645
20
1.5685057411193171
10
-2.1621286122811201
20
1.2746131149730802
10
-2.0886554557445605
20
1.1734859906762121
0
LINE
5
109
100
AcDbEntity
8
0
100
AcDbLine
10
-2.8531695488854605
20
0.9270509831248418
30
0
11
0
21
0
31
0
0
LINE
5
110
100
AcDbEntity
8
0
100
AcDbLine
10
2.8531695488854605
20
0.92705098312484358
30
0
11
0
21
0
31
0
0
LWPOLYLINE
5
111
100
AcDbEntity
8
0
100
AcDbPolyline
90
4
70
1
43
0.0
10
0.50000000000000044
20
-2.3020509831248437
10
1.0000000000000009
20
-2.3020509831248437
10
1.0000000000000009
20
-2.1770509831248437
10
0.50000000000000044
20
-2.1770509831248428
0
LWPOLYLINE
5
112
100
AcDbEntity
8
0
100
AcDbPolyline
90
4
70
1
43
0.0
10
-0.50000000000000011
20
-2.1770509831248437
10
-0.49999999999999978
20
-2.3020509831248437
10
-1.0000000000000009
20
-2.3020509831248437
10
-1.0000000000000002
20
-2.1770509831248432
0
LWPOLYLINE
5
113
100
AcDbEntity
8
0
100
AcDbPolyline
90
4
70
1
43
0.0
10
-1.7614815294327042
20
-1.6238022677014186
10
-1.9159900266201779
20
-1.1482740095538413
10
-2.0348720911570721
20
-1.1869011338507101
10
-1.880363593969598
20
-1.662429391998288
0
CIRCLE
5
114
100
AcDbEntity
8
0
100
AcDbCircle
10
-2.1294640278179515
20
-0.69190480505751151
30
0
40
0.069000000000000034
210
0
220
0
230
1
0
LWPOLYLINE
5
115
100
AcDbEntity
8
0
100
AcDbPolyline
90
4
70
1
43
0.0
10
-2.2250070209951258
20
-0.19721749325868787
10
-2.34388908553202
20
-0.23584461755555655
10
-2.4983975827194951
20
0.23968364059202157
10
-2.3795155181826009
20
0.27831076488888956
0
CIRCLE
5
116
100
AcDbEntity
8
0
100
AcDbCircle
10
0
20
-2.2390509831248431
30
0
40
0.069000000000000034
210
0
220
0
230
1
0
LWPOLYLINE
5
117
100
AcDbEntity
8
0
100
AcDbPolyline
90
4
70
1
43
0.0
10
2.3438890855320205
20
-0.23584461755555447
10
2.4983975827194951
20
0.23968364059202366
10
2.3795155181826004
20
0.27831076488889184
10
2.2250070209951263
20
-0.19721749325868576
0
CIRCLE
5
118
100
AcDbEntity
8
0
100
AcDbCircle
10
2.1294640278179529
20
-0.69190480505751006
30
0
40
0.069000000000000034
210
0
220
0
230
1
0
LWPOLYLINE
5
119
100
AcDbEntity
8
0
100
AcDbPolyline
90
4
70
1
43
0.0
10
1.9159900266201793
20
-1.1482740095538406
10
2.0348720911570735
20
-1.1869011338507094
10
1.8803635939696002
20
-1.6624293919982864
10
1.7614815294327062
20
-1.6238022677014179
0
LINE
5
120
100
AcDbEntity
8
0
100
AcDbLine
10
0
20
2.845491502812536
30
0
11
2.7062232358123439
21
0.87930523171858077
31
0
0
ENDSEC
0
SECTION
2
OBJECTS
0
DICTIONARY
5
C
100
AcDbDictionary
3
ACAD_GROUP
350
D
3
ACAD_MLINESTYLE
350
17
0
DICTIONARY
5
D
100
AcDbDictionary
0
DICTIONARY
5
1A
330
C
100
AcDbDictionary
0
DICTIONARY
5
17
100
AcDbDictionary
0
ENDSEC
0
EOF
