999
"DXF R12 Output" (www.mydxf.blogspot.com)
 0 
SECTION
 2 
HEADER
 9 
$ACADVER
 1 
AC1009
 9 
$EXTMIN
 10 
 0 
 20 
 0 
 9 
$EXTMAX
 10 
 8.5 
 20 
 11 
 0 
ENDSEC
 0 
SECTION
 2 
ENTITIES
0
LINE
8
Image
10
145.145000
20
320.247000
11
144.893262
21
320.831630
0
LINE
8
Image
10
144.893262
20
320.831630
11
144.924799
21
321.469960
0
LINE
8
Image
10
144.924799
20
321.469960
11
146.164833
21
322.458667
0
LINE
8
Image
10
146.164833
20
322.458667
11
149.368726
21
324.650543
0
LINE
8
Image
10
149.368726
20
324.650543
11
159.725499
21
331.347390
0
LINE
8
Image
10
159.725499
20
331.347390
11
219.072199
21
368.959790
0
LINE
8
Image
10
219.072199
20
368.959790
11
224.737509
21
372.588243
0
LINE
8
Image
10
224.737509
20
372.588243
11
228.693626
21
375.313526
0
LINE
8
Image
10
228.693626
20
375.313526
11
230.003731
21
376.377310
0
LINE
8
Image
10
230.003731
20
376.377310
11
230.854132
21
377.263100
0
LINE
8
Image
10
230.854132
20
377.263100
11
231.234027
21
377.986829
0
LINE
8
Image
10
231.234027
20
377.986829
11
231.132611
21
378.564428
0
LINE
8
Image
10
231.132611
20
378.564428
11
230.539085
21
379.011830
0
LINE
8
Image
10
230.539085
20
379.011830
11
229.442645
21
379.344969
0
LINE
8
Image
10
229.442645
20
379.344969
11
225.697816
21
379.732185
0
LINE
8
Image
10
225.697816
20
379.732185
11
219.811707
21
379.853539
0
LINE
8
Image
10
219.811707
20
379.853539
11
211.697899
21
379.836490
0
LINE
8
Image
10
211.697899
20
379.836490
11
191.698611
21
379.643138
0
LINE
8
Image
10
191.698611
20
379.643138
11
187.736651
21
379.469278
0
LINE
8
Image
10
187.736651
20
379.469278
11
186.399099
21
379.209232
0
LINE
8
Image
10
186.399099
20
379.209232
11
185.823532
21
378.926233
0
LINE
8
Image
10
185.823532
20
378.926233
11
184.892639
21
378.870102
0
LINE
8
Image
10
184.892639
20
378.870102
11
181.066329
21
379.484887
0
LINE
8
Image
10
181.066329
20
379.484887
11
177.875669
21
379.758579
0
LINE
8
Image
10
177.875669
20
379.758579
11
172.846579
21
379.885518
0
LINE
8
Image
10
172.846579
20
379.885518
11
169.186306
21
379.869117
0
LINE
8
Image
10
169.186306
20
379.869117
11
167.332910
21
379.670170
0
LINE
8
Image
10
167.332910
20
379.670170
11
166.905674
21
379.447827
0
LINE
8
Image
10
166.905674
20
379.447827
11
166.716416
21
379.114548
0
LINE
8
Image
10
166.716416
20
379.114548
11
166.766849
21
378.028118
0
LINE
8
Image
10
166.766849
20
378.028118
11
166.858330
21
376.458462
0
LINE
8
Image
10
166.858330
20
376.458462
11
166.706467
21
376.104420
0
LINE
8
Image
10
166.706467
20
376.104420
11
166.400570
21
375.908528
0
LINE
8
Image
10
166.400570
20
375.908528
11
165.689305
21
375.819745
0
LINE
8
Image
10
165.689305
20
375.819745
11
165.292082
21
376.162472
0
LINE
8
Image
10
165.292082
20
376.162472
11
165.240633
21
376.862924
0
LINE
8
Image
10
165.240633
20
376.862924
11
165.566694
21
377.847318
0
LINE
8
Image
10
165.566694
20
377.847318
11
166.202630
21
379.573738
0
LINE
8
Image
10
166.202630
20
379.573738
11
165.771970
21
379.735287
0
LINE
8
Image
10
165.771970
20
379.735287
11
164.466241
21
379.821345
0
LINE
8
Image
10
164.466241
20
379.821345
11
159.147080
21
379.769270
0
LINE
8
Image
10
159.147080
20
379.769270
11
149.153530
21
379.356494
0
LINE
8
Image
10
149.153530
20
379.356494
11
147.518011
21
379.064226
0
LINE
8
Image
10
147.518011
20
379.064226
11
147.196248
21
378.863683
0
LINE
8
Image
10
147.196248
20
378.863683
11
147.073980
21
378.614320
0
LINE
8
Image
10
147.073980
20
378.614320
11
146.828483
21
378.122328
0
LINE
8
Image
10
146.828483
20
378.122328
11
146.472260
21
378.193384
0
LINE
8
Image
10
146.472260
20
378.193384
11
146.096780
21
378.749133
0
LINE
8
Image
10
146.096780
20
378.749133
11
145.793510
21
379.711220
0
LINE
8
Image
10
145.793510
20
379.711220
11
145.611457
21
383.613732
0
LINE
8
Image
10
145.611457
20
383.613732
11
145.594267
21
390.972420
0
LINE
8
Image
10
145.594267
20
390.972420
11
145.722509
21
394.213767
0
LINE
8
Image
10
145.722509
20
394.213767
11
145.961911
21
395.525171
0
LINE
8
Image
10
145.961911
20
395.525171
11
146.413530
21
396.649573
0
LINE
8
Image
10
146.413530
20
396.649573
11
147.148886
21
397.601359
0
LINE
8
Image
10
147.148886
20
397.601359
11
148.239501
21
398.394914
0
LINE
8
Image
10
148.239501
20
398.394914
11
149.756898
21
399.044622
0
LINE
8
Image
10
149.756898
20
399.044622
11
151.772596
21
399.564867
0
LINE
8
Image
10
151.772596
20
399.564867
11
154.358119
21
399.970036
0
LINE
8
Image
10
154.358119
20
399.970036
11
157.584988
21
400.274512
0
LINE
8
Image
10
157.584988
20
400.274512
11
166.248848
21
400.638923
0
LINE
8
Image
10
166.248848
20
400.638923
11
178.336351
21
400.773180
0
LINE
8
Image
10
178.336351
20
400.773180
11
194.419667
21
400.792360
0
LINE
8
Image
10
194.419667
20
400.792360
11
236.391317
21
400.696705
0
LINE
8
Image
10
236.391317
20
400.696705
11
242.186014
21
400.491170
0
LINE
8
Image
10
242.186014
20
400.491170
11
243.065355
21
400.323903
0
LINE
8
Image
10
243.065355
20
400.323903
11
243.277367
21
400.104083
0
LINE
8
Image
10
243.277367
20
400.104083
11
243.317681
21
399.201580
0
LINE
8
Image
10
243.317681
20
399.201580
11
243.112042
21
398.386547
0
LINE
8
Image
10
243.112042
20
398.386547
11
242.699584
21
397.750829
0
LINE
8
Image
10
242.699584
20
397.750829
11
242.119437
21
397.386273
0
LINE
8
Image
10
242.119437
20
397.386273
11
240.870811
21
396.744240
0
LINE
8
Image
10
240.870811
20
396.744240
11
239.912897
21
395.724781
0
LINE
8
Image
10
239.912897
20
395.724781
11
239.318103
21
394.435555
0
LINE
8
Image
10
239.318103
20
394.435555
11
239.158837
21
392.984223
0
LINE
8
Image
10
239.158837
20
392.984223
11
239.079948
21
392.253387
0
LINE
8
Image
10
239.079948
20
392.253387
11
238.810050
21
391.949413
0
LINE
8
Image
10
238.810050
20
391.949413
11
238.543041
21
392.142853
0
LINE
8
Image
10
238.543041
20
392.142853
11
238.471107
21
392.607930
0
LINE
8
Image
10
238.471107
20
392.607930
11
238.494785
21
394.345150
0
LINE
8
Image
10
238.494785
20
394.345150
11
238.318228
21
395.170333
0
LINE
8
Image
10
238.318228
20
395.170333
11
238.094731
21
395.282626
0
LINE
8
Image
10
238.094731
20
395.282626
11
237.744018
21
395.238854
0
LINE
8
Image
10
237.744018
20
395.238854
11
234.627832
21
393.539918
0
LINE
8
Image
10
234.627832
20
393.539918
11
228.129138
21
389.715034
0
LINE
8
Image
10
228.129138
20
389.715034
11
222.568490
21
386.452882
0
LINE
8
Image
10
222.568490
20
386.452882
11
219.385937
21
384.854214
0
LINE
8
Image
10
219.385937
20
384.854214
11
218.475245
21
384.597436
0
LINE
8
Image
10
218.475245
20
384.597436
11
217.905635
21
384.659028
0
LINE
8
Image
10
217.905635
20
384.659028
11
217.592626
21
385.006491
0
LINE
8
Image
10
217.592626
20
385.006491
11
217.451738
21
385.607324
0
LINE
8
Image
10
217.451738
20
385.607324
11
217.459940
21
385.943877
0
LINE
8
Image
10
217.459940
20
385.943877
11
217.625377
21
386.297142
0
LINE
8
Image
10
217.625377
20
386.297142
11
218.787474
21
387.308096
0
LINE
8
Image
10
218.787474
20
387.308096
11
226.953208
21
392.327714
0
LINE
8
Image
10
226.953208
20
392.327714
11
236.569958
21
398.199434
0
LINE
8
Image
10
236.569958
20
398.199434
11
192.355158
21
398.346443
0
LINE
8
Image
10
192.355158
20
398.346443
11
166.793477
21
398.225911
0
LINE
8
Image
10
166.793477
20
398.225911
11
158.934987
21
397.939646
0
LINE
8
Image
10
158.934987
20
397.939646
11
153.667208
21
397.382184
0
LINE
8
Image
10
153.667208
20
397.382184
11
151.842916
21
396.973504
0
LINE
8
Image
10
151.842916
20
396.973504
11
150.471998
21
396.463125
0
LINE
8
Image
10
150.471998
20
396.463125
11
149.489687
21
395.839747
0
LINE
8
Image
10
149.489687
20
395.839747
11
148.831215
21
395.092070
0
LINE
8
Image
10
148.831215
20
395.092070
11
148.431813
21
394.208794
0
LINE
8
Image
10
148.431813
20
394.208794
11
148.226715
21
393.178619
0
LINE
8
Image
10
148.226715
20
393.178619
11
148.140358
21
390.632373
0
LINE
8
Image
10
148.140358
20
390.632373
11
148.231173
21
388.086127
0
LINE
8
Image
10
148.231173
20
388.086127
11
148.446859
21
387.055952
0
LINE
8
Image
10
148.446859
20
387.055952
11
148.866879
21
386.172676
0
LINE
8
Image
10
148.866879
20
386.172676
11
149.559343
21
385.424999
0
LINE
8
Image
10
149.559343
20
385.424999
11
150.592364
21
384.801621
0
LINE
8
Image
10
150.592364
20
384.801621
11
152.034053
21
384.291242
0
LINE
8
Image
10
152.034053
20
384.291242
11
153.952521
21
383.882562
0
LINE
8
Image
10
153.952521
20
383.882562
11
159.492238
21
383.325100
0
LINE
8
Image
10
159.492238
20
383.325100
11
167.756407
21
383.038835
0
LINE
8
Image
10
167.756407
20
383.038835
11
194.637658
21
382.918303
0
LINE
8
Image
10
194.637658
20
382.918303
11
229.815883
21
382.821968
0
LINE
8
Image
10
229.815883
20
382.821968
11
238.683040
21
382.700370
0
LINE
8
Image
10
238.683040
20
382.700370
11
241.862758
21
382.528769
0
LINE
8
Image
10
241.862758
20
382.528769
11
242.509508
21
381.914234
0
LINE
8
Image
10
242.509508
20
381.914234
11
242.599836
21
381.540620
0
LINE
8
Image
10
242.599836
20
381.540620
11
242.537313
21
381.130529
0
LINE
8
Image
10
242.537313
20
381.130529
11
241.961263
21
380.224175
0
LINE
8
Image
10
241.961263
20
380.224175
11
240.796448
21
379.241689
0
LINE
8
Image
10
240.796448
20
379.241689
11
237.068307
21
376.563074
0
LINE
8
Image
10
237.068307
20
376.563074
11
236.188138
21
375.804749
0
LINE
8
Image
10
236.188138
20
375.804749
11
235.756418
21
375.270249
0
LINE
8
Image
10
235.756418
20
375.270249
11
235.298179
21
374.824984
0
LINE
8
Image
10
235.298179
20
374.824984
11
234.691908
21
374.639785
0
LINE
8
Image
10
234.691908
20
374.639785
11
234.055485
21
374.513433
0
LINE
8
Image
10
234.055485
20
374.513433
11
233.724461
21
374.103891
0
LINE
8
Image
10
233.724461
20
374.103891
11
233.684043
21
373.365428
0
LINE
8
Image
10
233.684043
20
373.365428
11
233.919438
21
372.252315
0
LINE
8
Image
10
233.919438
20
372.252315
11
234.136604
21
370.914640
0
LINE
8
Image
10
234.136604
20
370.914640
11
234.011063
21
369.790424
0
LINE
8
Image
10
234.011063
20
369.790424
11
233.567143
21
368.963033
0
LINE
8
Image
10
233.567143
20
368.963033
11
232.829168
21
368.515835
0
LINE
8
Image
10
232.829168
20
368.515835
11
232.186216
21
368.526500
0
LINE
8
Image
10
232.186216
20
368.526500
11
231.569517
21
368.817290
0
LINE
8
Image
10
231.569517
20
368.817290
11
231.108777
21
369.295614
0
LINE
8
Image
10
231.108777
20
369.295614
11
230.933698
21
369.868885
0
LINE
8
Image
10
230.933698
20
369.868885
11
231.692977
21
371.967665
0
LINE
8
Image
10
231.692977
20
371.967665
11
232.307744
21
373.759195
0
LINE
8
Image
10
232.307744
20
373.759195
11
228.740026
21
371.656397
0
LINE
8
Image
10
228.740026
20
371.656397
11
220.353644
21
366.409405
0
LINE
8
Image
10
220.353644
20
366.409405
11
211.224786
21
360.458935
0
LINE
8
Image
10
211.224786
20
360.458935
11
208.870729
21
358.750965
0
LINE
8
Image
10
208.870729
20
358.750965
11
207.877444
21
357.810085
0
LINE
8
Image
10
207.877444
20
357.810085
11
207.008878
21
356.868871
0
LINE
8
Image
10
207.008878
20
356.868871
11
205.741474
21
356.254095
0
LINE
8
Image
10
205.741474
20
356.254095
11
204.486200
21
355.652073
0
LINE
8
Image
10
204.486200
20
355.652073
11
203.392636
21
354.728424
0
LINE
8
Image
10
203.392636
20
354.728424
11
202.619848
21
353.653486
0
LINE
8
Image
10
202.619848
20
353.653486
11
202.326904
21
352.597595
0
LINE
8
Image
10
202.326904
20
352.597595
11
202.179981
21
351.947260
0
LINE
8
Image
10
202.179981
20
351.947260
11
201.814640
21
351.685727
0
LINE
8
Image
10
201.814640
20
351.685727
11
201.474390
21
351.919537
0
LINE
8
Image
10
201.474390
20
351.919537
11
201.482214
21
352.626466
0
LINE
8
Image
10
201.482214
20
352.626466
11
201.472833
21
353.380739
0
LINE
8
Image
10
201.472833
20
353.380739
11
201.263642
21
353.526680
0
LINE
8
Image
10
201.263642
20
353.526680
11
200.887315
21
353.567208
0
LINE
8
Image
10
200.887315
20
353.567208
11
194.617497
21
349.899810
0
LINE
8
Image
10
194.617497
20
349.899810
11
181.532049
21
341.769471
0
LINE
8
Image
10
181.532049
20
341.769471
11
168.487834
21
333.483975
0
LINE
8
Image
10
168.487834
20
333.483975
11
162.341715
21
329.351108
0
LINE
8
Image
10
162.341715
20
329.351108
11
162.192128
21
328.822073
0
LINE
8
Image
10
162.192128
20
328.822073
11
162.234044
21
328.155838
0
LINE
8
Image
10
162.234044
20
328.155838
11
162.305942
21
327.312047
0
LINE
8
Image
10
162.305942
20
327.312047
11
162.168568
21
326.526648
0
LINE
8
Image
10
162.168568
20
326.526648
11
161.869148
21
325.947199
0
LINE
8
Image
10
161.869148
20
325.947199
11
161.454905
21
325.721258
0
LINE
8
Image
10
161.454905
20
325.721258
11
161.087263
21
325.895845
0
LINE
8
Image
10
161.087263
20
325.895845
11
160.934349
21
326.315601
0
LINE
8
Image
10
160.934349
20
326.315601
11
160.880817
21
326.596514
0
LINE
8
Image
10
160.880817
20
326.596514
11
160.690646
21
326.736850
0
LINE
8
Image
10
160.690646
20
326.736850
11
159.722949
21
326.643876
0
LINE
8
Image
10
159.722949
20
326.643876
11
158.609591
21
326.168277
0
LINE
8
Image
10
158.609591
20
326.168277
11
157.274474
21
325.323962
0
LINE
8
Image
10
157.274474
20
325.323962
11
156.151105
21
324.419324
0
LINE
8
Image
10
156.151105
20
324.419324
11
155.672989
21
323.762756
0
LINE
8
Image
10
155.672989
20
323.762756
11
156.082704
21
323.505097
0
LINE
8
Image
10
156.082704
20
323.505097
11
157.077319
21
323.257982
0
LINE
8
Image
10
157.077319
20
323.257982
11
159.805469
21
322.678586
0
LINE
8
Image
10
159.805469
20
322.678586
11
161.250821
21
322.419595
0
LINE
8
Image
10
161.250821
20
322.419595
11
162.792379
21
322.358073
0
LINE
8
Image
10
162.792379
20
322.358073
11
164.400695
21
322.493330
0
LINE
8
Image
10
164.400695
20
322.493330
11
166.046319
21
322.824675
0
LINE
8
Image
10
166.046319
20
322.824675
11
167.781633
21
323.124669
0
LINE
8
Image
10
167.781633
20
323.124669
11
168.412969
21
323.055696
0
LINE
8
Image
10
168.412969
20
323.055696
11
169.044619
21
322.841637
0
LINE
8
Image
10
169.044619
20
322.841637
11
171.208241
21
322.611630
0
LINE
8
Image
10
171.208241
20
322.611630
11
177.153022
21
322.463515
0
LINE
8
Image
10
177.153022
20
322.463515
11
204.875019
21
322.351556
0
LINE
8
Image
10
204.875019
20
322.351556
11
224.946732
21
322.453611
0
LINE
8
Image
10
224.946732
20
322.453611
11
231.114126
21
322.716268
0
LINE
8
Image
10
231.114126
20
322.716268
11
235.243469
21
323.231608
0
LINE
8
Image
10
235.243469
20
323.231608
11
236.670652
21
323.610190
0
LINE
8
Image
10
236.670652
20
323.610190
11
237.740457
21
324.083328
0
LINE
8
Image
10
237.740457
20
324.083328
11
238.503596
21
324.661486
0
LINE
8
Image
10
238.503596
20
324.661486
11
239.010782
21
325.355126
0
LINE
8
Image
10
239.010782
20
325.355126
11
239.312725
21
326.174710
0
LINE
8
Image
10
239.312725
20
326.174710
11
239.460138
21
327.130699
0
LINE
8
Image
10
239.460138
20
327.130699
11
239.494219
21
329.493746
0
LINE
8
Image
10
239.494219
20
329.493746
11
239.404630
21
331.856814
0
LINE
8
Image
10
239.404630
20
331.856814
11
239.258323
21
332.812853
0
LINE
8
Image
10
239.258323
20
332.812853
11
238.988285
21
333.632530
0
LINE
8
Image
10
238.988285
20
333.632530
11
238.552474
21
334.326323
0
LINE
8
Image
10
238.552474
20
334.326323
11
237.908848
21
334.904709
0
LINE
8
Image
10
237.908848
20
334.904709
11
237.015365
21
335.378166
0
LINE
8
Image
10
237.015365
20
335.378166
11
235.829983
21
335.757171
0
LINE
8
Image
10
235.829983
20
335.757171
11
232.415355
21
336.273731
0
LINE
8
Image
10
232.415355
20
336.273731
11
227.328625
21
336.538209
0
LINE
8
Image
10
227.328625
20
336.538209
11
210.793519
21
336.646186
0
LINE
8
Image
10
210.793519
20
336.646186
11
190.354757
21
336.706750
0
LINE
8
Image
10
190.354757
20
336.706750
11
181.374419
21
336.861874
0
LINE
8
Image
10
181.374419
20
336.861874
11
180.738092
21
337.166305
0
LINE
8
Image
10
180.738092
20
337.166305
11
180.371712
21
337.637589
0
LINE
8
Image
10
180.371712
20
337.637589
11
180.292159
21
338.235262
0
LINE
8
Image
10
180.292159
20
338.235262
11
180.516312
21
338.918864
0
LINE
8
Image
10
180.516312
20
338.918864
11
180.732406
21
339.153033
0
LINE
8
Image
10
180.732406
20
339.153033
11
181.319171
21
339.330486
0
LINE
8
Image
10
181.319171
20
339.330486
11
184.938441
21
339.546676
0
LINE
8
Image
10
184.938441
20
339.546676
11
211.296012
21
339.644197
0
LINE
8
Image
10
211.296012
20
339.644197
11
235.264662
21
339.547327
0
LINE
8
Image
10
235.264662
20
339.547327
11
240.428309
21
339.408219
0
LINE
8
Image
10
240.428309
20
339.408219
11
242.139012
21
339.192642
0
LINE
8
Image
10
242.139012
20
339.192642
11
242.347194
21
338.488807
0
LINE
8
Image
10
242.347194
20
338.488807
11
242.487125
21
336.767061
0
LINE
8
Image
10
242.487125
20
336.767061
11
242.590567
21
329.672352
0
LINE
8
Image
10
242.590567
20
329.672352
11
242.487125
21
322.577644
0
LINE
8
Image
10
242.487125
20
322.577644
11
242.347194
21
320.855898
0
LINE
8
Image
10
242.347194
20
320.855898
11
242.139012
21
320.152062
0
LINE
8
Image
10
242.139012
20
320.152062
11
239.599643
21
319.935330
0
LINE
8
Image
10
239.599643
20
319.935330
11
231.585889
21
319.796350
0
LINE
8
Image
10
231.585889
20
319.796350
11
193.642912
21
319.700507
0
LINE
8
Image
10
193.642912
20
319.700507
11
153.962887
21
319.796540
0
LINE
8
Image
10
153.962887
20
319.796540
11
147.046369
21
319.962215
0
LINE
8
Image
10
147.046369
20
319.962215
11
145.637536
21
320.087777
0
LINE
8
Image
10
145.637536
20
320.087777
11
145.144912
21
320.246894
0
LINE
8
Image
10
145.144912
20
320.246894
11
145.145000
21
320.247000
0
LINE
8
Image
10
161.310700
20
324.193960
11
161.421237
21
324.512350
0
LINE
8
Image
10
161.421237
20
324.512350
11
161.686995
21
324.780612
0
LINE
8
Image
10
161.686995
20
324.780612
11
161.952756
21
324.772535
0
LINE
8
Image
10
161.952756
20
324.772535
11
162.063293
21
324.426525
0
LINE
8
Image
10
162.063293
20
324.426525
11
161.952756
21
324.012202
0
LINE
8
Image
10
161.952756
20
324.012202
11
161.686995
21
323.839873
0
LINE
8
Image
10
161.686995
20
323.839873
11
161.421237
21
323.943886
0
LINE
8
Image
10
161.421237
20
323.943886
11
161.310700
21
324.193960
0
LINE
8
Image
10
161.310700
20
324.193960
11
161.310700
21
324.193960
0
LINE
8
Image
10
145.582000
20
337.838000
11
145.263089
21
338.338250
0
LINE
8
Image
10
145.263089
20
338.338250
11
145.130445
21
338.906880
0
LINE
8
Image
10
145.130445
20
338.906880
11
147.025165
21
340.389306
0
LINE
8
Image
10
147.025165
20
340.389306
11
152.661158
21
344.195377
0
LINE
8
Image
10
152.661158
20
344.195377
11
174.867945
21
358.587180
0
LINE
8
Image
10
174.867945
20
358.587180
11
196.010783
21
372.050405
0
LINE
8
Image
10
196.010783
20
372.050405
11
205.084545
21
377.650180
0
LINE
8
Image
10
205.084545
20
377.650180
11
205.585496
21
377.515402
0
LINE
8
Image
10
205.585496
20
377.515402
11
206.028948
21
377.162442
0
LINE
8
Image
10
206.028948
20
377.162442
11
206.345739
21
376.668355
0
LINE
8
Image
10
206.345739
20
376.668355
11
206.466705
21
376.110200
0
LINE
8
Image
10
206.466705
20
376.110200
11
206.142343
21
375.692837
0
LINE
8
Image
10
206.142343
20
375.692837
11
204.986030
21
374.788351
0
LINE
8
Image
10
204.986030
20
374.788351
11
199.078180
21
370.797053
0
LINE
8
Image
10
199.078180
20
370.797053
11
165.186005
21
349.038400
0
LINE
8
Image
10
165.186005
20
349.038400
11
155.825320
21
342.987565
0
LINE
8
Image
10
155.825320
20
342.987565
11
151.921605
21
340.310470
0
LINE
8
Image
10
151.921605
20
340.310470
11
154.190731
21
340.086666
0
LINE
8
Image
10
154.190731
20
340.086666
11
159.671285
21
339.934175
0
LINE
8
Image
10
159.671285
20
339.934175
11
166.161996
21
339.741499
0
LINE
8
Image
10
166.161996
20
339.741499
11
167.365164
21
339.537402
0
LINE
8
Image
10
167.365164
20
339.537402
11
167.833905
21
339.205489
0
LINE
8
Image
10
167.833905
20
339.205489
11
168.026183
21
338.585579
0
LINE
8
Image
10
168.026183
20
338.585579
11
167.734436
21
337.982529
0
LINE
8
Image
10
167.734436
20
337.982529
11
167.114961
21
337.670884
0
LINE
8
Image
10
167.114961
20
337.670884
11
165.480111
21
337.490294
0
LINE
8
Image
10
165.480111
20
337.490294
11
156.636736
21
337.386544
0
LINE
8
Image
10
156.636736
20
337.386544
11
148.328675
21
337.488631
0
LINE
8
Image
10
148.328675
20
337.488631
11
146.359350
21
337.628392
0
LINE
8
Image
10
146.359350
20
337.628392
11
145.582036
21
337.838099
0
LINE
8
Image
10
145.582036
20
337.838099
11
145.582000
21
337.838000
0
LINE
8
Image
10
200.822300
20
350.745000
11
200.932837
21
351.143639
0
LINE
8
Image
10
200.932837
20
351.143639
11
201.198598
21
351.309444
0
LINE
8
Image
10
201.198598
20
351.309444
11
201.464356
21
351.143639
0
LINE
8
Image
10
201.464356
20
351.143639
11
201.574893
21
350.745000
0
LINE
8
Image
10
201.574893
20
350.745000
11
201.464356
21
350.346362
0
LINE
8
Image
10
201.464356
20
350.346362
11
201.198598
21
350.180556
0
LINE
8
Image
10
201.198598
20
350.180556
11
200.932837
21
350.346362
0
LINE
8
Image
10
200.932837
20
350.346362
11
200.822300
21
350.745000
0
LINE
8
Image
10
200.822300
20
350.745000
11
200.822300
21
350.745000
0
LINE
8
Image
10
228.166500
20
364.354400
11
227.965462
21
364.794061
0
LINE
8
Image
10
227.965462
20
364.794061
11
227.911205
21
365.499088
0
LINE
8
Image
10
227.911205
20
365.499088
11
228.170384
21
367.387304
0
LINE
8
Image
10
228.170384
20
367.387304
11
228.798737
21
369.383170
0
LINE
8
Image
10
228.798737
20
369.383170
11
229.650960
21
370.850810
0
LINE
8
Image
10
229.650960
20
370.850810
11
229.897121
21
371.076599
0
LINE
8
Image
10
229.897121
20
371.076599
11
230.018488
21
371.050923
0
LINE
8
Image
10
230.018488
20
371.050923
11
229.944076
21
370.098217
0
LINE
8
Image
10
229.944076
20
370.098217
11
229.905783
21
368.722604
0
LINE
8
Image
10
229.905783
20
368.722604
11
230.100317
21
367.228137
0
LINE
8
Image
10
230.100317
20
367.228137
11
230.271071
21
365.818587
0
LINE
8
Image
10
230.271071
20
365.818587
11
230.163231
21
365.324069
0
LINE
8
Image
10
230.163231
20
365.324069
11
229.919393
21
364.876287
0
LINE
8
Image
10
229.919393
20
364.876287
11
229.483334
21
364.402218
0
LINE
8
Image
10
229.483334
20
364.402218
11
229.016692
21
364.148539
0
LINE
8
Image
10
229.016692
20
364.148539
11
228.563178
21
364.128263
0
LINE
8
Image
10
228.563178
20
364.128263
11
228.166503
21
364.354405
0
LINE
8
Image
10
228.166503
20
364.354405
11
228.166500
21
364.354400
0
LINE
8
Image
10
231.686960
20
365.702790
11
231.909026
21
366.311330
0
LINE
8
Image
10
231.909026
20
366.311330
11
232.431185
21
367.113900
0
LINE
8
Image
10
232.431185
20
367.113900
11
233.069258
21
367.818524
0
LINE
8
Image
10
233.069258
20
367.818524
11
233.175407
21
367.238749
0
LINE
8
Image
10
233.175407
20
367.238749
11
232.955367
21
365.827639
0
LINE
8
Image
10
232.955367
20
365.827639
11
232.641467
21
365.415553
0
LINE
8
Image
10
232.641467
20
365.415553
11
232.215288
21
365.246541
0
LINE
8
Image
10
232.215288
20
365.246541
11
231.842046
21
365.336867
0
LINE
8
Image
10
231.842046
20
365.336867
11
231.686957
21
365.702790
0
LINE
8
Image
10
231.686957
20
365.702790
11
231.686960
21
365.702790
0
LINE
8
Image
10
146.636000
20
373.844000
11
146.797479
21
374.716939
0
LINE
8
Image
10
146.797479
20
374.716939
11
147.185715
21
375.819550
0
LINE
8
Image
10
147.185715
20
375.819550
11
147.503749
21
376.520681
0
LINE
8
Image
10
147.503749
20
376.520681
11
147.668557
21
376.680496
0
LINE
8
Image
10
147.668557
20
376.680496
11
147.750159
21
375.110160
0
LINE
8
Image
10
147.750159
20
375.110160
11
147.641496
21
373.555486
0
LINE
8
Image
10
147.641496
20
373.555486
11
147.470138
21
373.230703
0
LINE
8
Image
10
147.470138
20
373.230703
11
147.200444
21
373.134610
0
LINE
8
Image
10
147.200444
20
373.134610
11
146.801806
21
373.342994
0
LINE
8
Image
10
146.801806
20
373.342994
11
146.636000
21
373.844000
0
LINE
8
Image
10
146.636000
20
373.844000
11
146.636000
21
373.844000
0
LINE
8
Image
10
182.381300
20
373.702404
11
182.187534
21
374.051756
0
LINE
8
Image
10
182.187534
20
374.051756
11
182.206926
21
374.460874
0
LINE
8
Image
10
182.206926
20
374.460874
11
182.993744
21
375.836744
0
LINE
8
Image
10
182.993744
20
375.836744
11
183.625413
21
376.718217
0
LINE
8
Image
10
183.625413
20
376.718217
11
183.983330
21
377.014006
0
LINE
8
Image
10
183.983330
20
377.014006
11
184.200122
21
376.725876
0
LINE
8
Image
10
184.200122
20
376.725876
11
184.408414
21
375.855596
0
LINE
8
Image
10
184.408414
20
375.855596
11
184.576055
21
374.590213
0
LINE
8
Image
10
184.576055
20
374.590213
11
184.514298
21
373.721256
0
LINE
8
Image
10
184.514298
20
373.721256
11
184.146315
21
373.298944
0
LINE
8
Image
10
184.146315
20
373.298944
11
183.570399
21
373.154167
0
LINE
8
Image
10
183.570399
20
373.154167
11
182.933183
21
373.288222
0
LINE
8
Image
10
182.933183
20
373.288222
11
182.381298
21
373.702404
0
LINE
8
Image
10
182.381298
20
373.702404
11
182.381300
21
373.702404
0
LINE
8
Image
10
166.203400
20
374.639793
11
166.313937
21
374.905554
0
LINE
8
Image
10
166.313937
20
374.905554
11
166.579698
21
375.016091
0
LINE
8
Image
10
166.579698
20
375.016091
11
166.845456
21
374.905554
0
LINE
8
Image
10
166.845456
20
374.905554
11
166.955993
21
374.639793
0
LINE
8
Image
10
166.955993
20
374.639793
11
166.845456
21
374.374035
0
LINE
8
Image
10
166.845456
20
374.374035
11
166.579698
21
374.263498
0
LINE
8
Image
10
166.579698
20
374.263498
11
166.313937
21
374.374035
0
LINE
8
Image
10
166.313937
20
374.374035
11
166.203400
21
374.639793
0
LINE
8
Image
10
166.203400
20
374.639793
11
166.203400
21
374.639793
0
LINE
8
Image
10
242.215200
20
396.464993
11
242.325737
21
396.730751
0
LINE
8
Image
10
242.325737
20
396.730751
11
242.591498
21
396.841288
0
LINE
8
Image
10
242.591498
20
396.841288
11
242.857256
21
396.730751
0
LINE
8
Image
10
242.857256
20
396.730751
11
242.967793
21
396.464993
0
LINE
8
Image
10
242.967793
20
396.464993
11
242.857256
21
396.199235
0
LINE
8
Image
10
242.857256
20
396.199235
11
242.591498
21
396.088698
0
LINE
8
Image
10
242.591498
20
396.088698
11
242.325737
21
396.199235
0
LINE
8
Image
10
242.325737
20
396.199235
11
242.215200
21
396.464993
0
LINE
8
Image
10
242.215200
20
396.464993
11
242.215200
21
396.464993
 0 
ENDSEC
 0 
EOF