0
SECTION
2
HEADER
9
$INSUNITS
70
4
9
$ACADVER
1
AC1014
9
$HANDSEED
5
FFFF
0
ENDSEC
0
SECTION
2
TABLES
0
TABLE
2
VPORT
5
8
100
AcDbSymbolTable
0
ENDTAB
0
TABLE
2
LTYPE
5
5
100
AcDbSymbolTable
0
LTYPE
5
14
100
AcDbSymbolTableRecord
100
AcDbLinetypeTableRecord
2
BYBLOCK
70
0
0
LTYPE
5
15
100
AcDbSymbolTableRecord
100
AcDbLinetypeTableRecord
2
BYLAYER
70
0
0
ENDTAB
0
TABLE
2
LAYER
5
2
100
AcDbSymbolTable
70
2
0
LAYER
5
50
100
AcDbSymbolTableRecord
100
AcDbLayerTableRecord
2
0
70
0
6
CONTINUOUS
0
ENDTAB
0
TABLE
2
STYLE
5
3
100
AcDbSymbolTable
70
1
0
STYLE
5
11
100
AcDbSymbolTableRecord
100
AcDbTextStyleTableRecord
2
STANDARD
70
0
0
ENDTAB
0
TABLE
2
VIEW
5
6
100
AcDbSymbolTable
70
0
0
ENDTAB
0
TABLE
2
UCS
5
7
100
AcDbSymbolTable
70
0
0
ENDTAB
0
TABLE
2
APPID
5
9
100
AcDbSymbolTable
70
2
0
APPID
5
12
100
AcDbSymbolTableRecord
100
AcDbRegAppTableRecord
2
ACAD
70
0
0
ENDTAB
0
TABLE
2
DIMSTYLE
5
A
100
AcDbSymbolTable
70
1
0
ENDTAB
0
TABLE
2
BLOCK_RECORD
5
1
100
AcDbSymbolTable
70
1
0
BLOCK_RECORD
5
1F
100
AcDbSymbolTableRecord
100
AcDbBlockTableRecord
2
*MODEL_SPACE
0
BLOCK_RECORD
5
1B
100
AcDbSymbolTableRecord
100
AcDbBlockTableRecord
2
*PAPER_SPACE
0
ENDTAB
0
ENDSEC
0
SECTION
2
BLOCKS
0
BLOCK
5
20
100
AcDbEntity
100
AcDbBlockBegin
2
*MODEL_SPACE
0
ENDBLK
5
21
100
AcDbEntity
100
AcDbBlockEnd
0
BLOCK
5
1C
100
AcDbEntity
100
AcDbBlockBegin
2
*PAPER_SPACE
0
ENDBLK
5
1D
100
AcDbEntity
100
AcDbBlockEnd
0
ENDSEC
0
SECTION
2
ENTITIES
0
LINE
5
100
100
AcDbEntity
8
0
100
AcDbLine
10
82.550000000023914
20
82.55000000002471
30
0
11
-82.549999999976066
21
82.550000000024752
31
0
0
LINE
5
101
100
AcDbEntity
8
0
100
AcDbLine
10
-82.549999999976066
20
82.550000000024752
30
0
11
-82.549999999976109
21
-82.549999999975256
31
0
0
LINE
5
102
100
AcDbEntity
8
0
100
AcDbLine
10
-82.549999999976109
20
-82.549999999975256
30
0
11
82.550000000023914
21
-82.549999999975284
31
0
0
LINE
5
103
100
AcDbEntity
8
0
100
AcDbLine
10
82.550000000023914
20
-82.549999999975284
30
0
11
82.550000000023914
21
82.55000000002471
31
0
0
LINE
5
104
100
AcDbEntity
8
0
100
AcDbLine
10
82.550000000023914
20
82.55000000002471
30
0
11
-82.549999999976109
21
-82.549999999975256
31
0
0
LINE
5
105
100
AcDbEntity
8
0
100
AcDbLine
10
-82.549999999976066
20
82.550000000024752
30
0
11
82.550000000023914
21
-82.549999999975284
31
0
0
LINE
5
106
100
AcDbEntity
8
0
100
AcDbLine
10
2.3930899943904143e-11
20
82.550000000024738
30
0
11
2.389570882085115e-11
21
-82.549999999975284
31
0
0
LINE
5
107
100
AcDbEntity
8
0
100
AcDbLine
10
-82.549999999976095
20
2.4725448349583986e-11
30
0
11
82.550000000023914
21
2.4735388315101333e-11
31
0
0
CIRCLE
5
108
100
AcDbEntity
8
0
100
AcDbCircle
10
0
20
0
30
0
40
3.1749999999999998
210
0
220
0
230
1
0
CIRCLE
5
109
100
AcDbEntity
8
0
100
AcDbCircle
10
52.983511114307305
20
52.983511114308698
30
0
40
1.7526000000000002
210
0
220
0
230
1
0
CIRCLE
5
110
100
AcDbEntity
8
0
100
AcDbCircle
10
1.4825335528612841e-11
20
77.774800000024726
30
0
40
1.7525999999999975
210
0
220
0
230
1
0
LWPOLYLINE
5
111
100
AcDbEntity
8
0
100
AcDbPolyline
90
4
70
1
43
0.0
10
-25.399999999985177
20
79.375000000024713
10
-50.799999999985175
20
79.375000000024713
10
-50.799999999985175
20
76.200000000024716
10
-25.399999999985177
20
76.200000000024716
0
CIRCLE
5
112
100
AcDbEntity
8
0
100
AcDbCircle
10
-77.774800000024726
20
1.484260500335197e-11
30
0
40
1.7525999999999975
210
0
220
0
230
1
0
CIRCLE
5
113
100
AcDbEntity
8
0
100
AcDbCircle
10
-1.4834860194600278e-11
20
-77.774800000024726
30
0
40
1.7525999999999975
210
0
220
0
230
1
0
CIRCLE
5
114
100
AcDbEntity
8
0
100
AcDbCircle
10
77.774800000024726
20
-1.484260500335197e-11
30
0
40
1.7525999999999975
210
0
220
0
230
1
0
LWPOLYLINE
5
115
100
AcDbEntity
8
0
100
AcDbPolyline
90
4
70
1
43
0.0
10
25.400000000033039
20
79.375000000024713
10
50.80000000003303
20
79.375000000024698
10
50.80000000003303
20
76.200000000024701
10
25.400000000033039
20
76.200000000024716
0
LWPOLYLINE
5
116
100
AcDbEntity
8
0
100
AcDbPolyline
90
4
70
1
43
0.0
10
-79.375000000024727
20
-25.399999999985159
10
-79.375000000024727
20
-50.799999999985161
10
-76.20000000002473
20
-50.799999999985161
10
-76.20000000002473
20
-25.399999999985159
0
LWPOLYLINE
5
117
100
AcDbEntity
8
0
100
AcDbPolyline
90
4
70
1
43
0.0
10
-76.200000000024687
20
50.800000000033052
10
-76.200000000024701
20
25.40000000003306
10
-79.375000000024698
20
25.40000000003306
10
-79.375000000024698
20
50.800000000033052
0
LWPOLYLINE
5
118
100
AcDbEntity
8
0
100
AcDbPolyline
90
4
70
1
43
0.0
10
25.39999999998517
20
-79.375000000024713
10
50.799999999985168
20
-79.375000000024727
10
50.799999999985168
20
-76.20000000002473
10
25.39999999998517
20
-76.200000000024716
0
LWPOLYLINE
5
119
100
AcDbEntity
8
0
100
AcDbPolyline
90
4
70
1
43
0.0
10
-50.800000000033037
20
-76.200000000024687
10
-25.400000000033049
20
-76.200000000024716
10
-25.400000000033049
20
-79.375000000024713
10
-50.800000000033037
20
-79.375000000024698
0
LWPOLYLINE
5
120
100
AcDbEntity
8
0
100
AcDbPolyline
90
4
70
1
43
0.0
10
79.375000000024727
20
25.399999999985159
10
79.375000000024727
20
50.799999999985161
10
76.20000000002473
20
50.799999999985161
10
76.20000000002473
20
25.399999999985159
0
LWPOLYLINE
5
121
100
AcDbEntity
8
0
100
AcDbPolyline
90
4
70
1
43
0.0
10
76.200000000024687
20
-50.800000000033052
10
76.200000000024701
20
-25.40000000003306
10
79.375000000024698
20
-25.40000000003306
10
79.375000000024698
20
-50.800000000033052
0
ARC
5
122
100
AcDbEntity
8
0
100
AcDbCircle
10
52.983511114307319
20
52.983511114308698
30
0
40
15.081250000000008
210
0
220
0
230
1
100
AcDbArc
50
111.57425420987839
51
189.12039085135481
0
LINE
5
123
100
AcDbEntity
8
0
100
AcDbLine
10
38.092926454719425
20
50.592990238401924
30
0
11
52.983511114307305
21
52.983511114308698
31
0
0
LINE
5
124
100
AcDbEntity
8
0
100
AcDbLine
10
47.438034119478878
20
67.008196011386744
30
0
11
52.983511114307319
21
52.983511114308698
31
0
0
LWPOLYLINE
5
125
100
AcDbEntity
8
0
100
AcDbPolyline
90
4
70
1
43
0.0
10
39.701165150161344
20
50.851175411300389
42
-0.35189144283996182
10
48.036966323394964
20
65.493477720702444
10
46.743315138164562
20
68.765162060301662
42
0.36531270369203744
10
36.147427934080838
20
50.851175411300389
0
CIRCLE
5
126
100
AcDbEntity
8
0
100
AcDbCircle
10
-17.960512242138307
20
-17.960512242138307
30
0
40
9.5250000000000004
210
0
220
0
230
1
0
LINE
5
127
100
AcDbEntity
8
0
100
AcDbLine
10
46.472825426532879
20
48.717889456800151
30
0
11
48.717889456800172
21
46.472825426532864
31
0
0
LINE
5
128
100
AcDbEntity
8
0
100
AcDbLine
10
48.717889456800172
20
46.472825426532864
30
0
11
39.737633335731005
21
37.492569305463732
31
0
0
LINE
5
129
100
AcDbEntity
8
0
100
AcDbLine
10
39.737633335731005
20
37.492569305463732
30
0
11
37.492569305463739
21
39.737633335731012
31
0
0
LINE
5
130
100
AcDbEntity
8
0
100
AcDbLine
10
37.492569305463739
20
39.737633335731012
30
0
11
46.472825426532879
21
48.717889456800151
31
0
0
LINE
5
131
100
AcDbEntity
8
0
100
AcDbLine
10
39.737633335731005
20
37.492569305463732
30
0
11
46.472825426532879
21
48.717889456800151
31
0
0
LINE
5
132
100
AcDbEntity
8
0
100
AcDbLine
10
37.492569305463739
20
39.737633335731012
30
0
11
48.717889456800172
21
46.472825426532864
31
0
0
LINE
5
133
100
AcDbEntity
8
0
100
AcDbLine
10
52.983511114307305
20
52.983511114308698
30
0
11
71.077867540711537
21
34.889154687904465
31
0
0
LWPOLYLINE
5
134
100
AcDbEntity
8
0
100
AcDbPolyline
90
4
70
1
43
0.0
10
59.494196802083152
20
57.249132771815837
10
57.249132771815866
20
59.494196802083124
10
66.229388892885027
20
68.474452923152271
10
68.474452923152285
20
66.229388892884998
0
LWPOLYLINE
5
135
100
AcDbEntity
8
0
100
AcDbPolyline
90
4
70
1
43
0.0
10
-37.492569305463725
20
39.737633335731019
10
-46.472825426532857
20
48.717889456800179
10
-48.717889456800137
20
46.472825426532893
10
-39.737633335731005
20
37.492569305463746
0
CIRCLE
5
136
100
AcDbEntity
8
0
100
AcDbCircle
10
-52.983511114308691
20
52.983511114307319
30
0
40
1.7526000000000002
210
0
220
0
230
1
0
LWPOLYLINE
5
137
100
AcDbEntity
8
0
100
AcDbPolyline
90
4
70
1
43
0.0
10
-66.229388892884984
20
68.474452923152299
10
-57.249132771815823
20
59.49419680208316
10
-59.494196802083117
20
57.24913277181588
10
-68.474452923152256
20
66.229388892885041
0
LWPOLYLINE
5
138
100
AcDbEntity
8
0
100
AcDbPolyline
90
4
70
1
43
0.0
10
-39.737633335731012
20
-37.492569305463725
10
-48.717889456800179
20
-46.472825426532857
10
-46.472825426532893
20
-48.717889456800137
10
-37.492569305463739
20
-39.737633335731005
0
CIRCLE
5
139
100
AcDbEntity
8
0
100
AcDbCircle
10
-52.983511114307319
20
-52.983511114308691
30
0
40
1.7526000000000002
210
0
220
0
230
1
0
LWPOLYLINE
5
140
100
AcDbEntity
8
0
100
AcDbPolyline
90
4
70
1
43
0.0
10
-68.474452923152299
20
-66.229388892884998
10
-59.49419680208316
20
-57.249132771815823
10
-57.24913277181588
20
-59.494196802083117
10
-66.229388892885027
20
-68.474452923152271
0
LWPOLYLINE
5
141
100
AcDbEntity
8
0
100
AcDbPolyline
90
4
70
1
43
0.0
10
37.492569305463725
20
-39.737633335731019
10
46.472825426532857
20
-48.717889456800179
10
48.717889456800137
20
-46.472825426532893
10
39.737633335731005
20
-37.492569305463746
0
CIRCLE
5
142
100
AcDbEntity
8
0
100
AcDbCircle
10
52.983511114308691
20
-52.983511114307319
30
0
40
1.7526000000000002
210
0
220
0
230
1
0
LWPOLYLINE
5
143
100
AcDbEntity
8
0
100
AcDbPolyline
90
4
70
1
43
0.0
10
66.229388892884984
20
-68.474452923152299
10
57.249132771815823
20
-59.49419680208316
10
59.494196802083117
20
-57.24913277181588
10
68.474452923152256
20
-66.229388892885041
0
ENDSEC
0
SECTION
2
OBJECTS
0
DICTIONARY
5
C
100
AcDbDictionary
3
ACAD_GROUP
350
D
3
ACAD_MLINESTYLE
350
17
0
DICTIONARY
5
D
100
AcDbDictionary
0
DICTIONARY
5
1A
330
C
100
AcDbDictionary
0
DICTIONARY
5
17
100
AcDbDictionary
0
ENDSEC
0
EOF
