0
SECTION
2
HEADER
9
$INSUNITS
70
4
9
$ACADVER
1
AC1014
9
$HANDSEED
5
FFFF
0
ENDSEC
0
SECTION
2
TABLES
0
TABLE
2
VPORT
5
8
100
AcDbSymbolTable
0
ENDTAB
0
TABLE
2
LTYPE
5
5
100
AcDbSymbolTable
0
LTYPE
5
14
100
AcDbSymbolTableRecord
100
AcDbLinetypeTableRecord
2
BYBLOCK
70
0
0
LTYPE
5
15
100
AcDbSymbolTableRecord
100
AcDbLinetypeTableRecord
2
BYLAYER
70
0
0
ENDTAB
0
TABLE
2
LAYER
5
2
100
AcDbSymbolTable
70
2
0
LAYER
5
50
100
AcDbSymbolTableRecord
100
AcDbLayerTableRecord
2
0
70
0
6
CONTINUOUS
0
ENDTAB
0
TABLE
2
STYLE
5
3
100
AcDbSymbolTable
70
1
0
STYLE
5
11
100
AcDbSymbolTableRecord
100
AcDbTextStyleTableRecord
2
STANDARD
70
0
0
ENDTAB
0
TABLE
2
VIEW
5
6
100
AcDbSymbolTable
70
0
0
ENDTAB
0
TABLE
2
UCS
5
7
100
AcDbSymbolTable
70
0
0
ENDTAB
0
TABLE
2
APPID
5
9
100
AcDbSymbolTable
70
2
0
APPID
5
12
100
AcDbSymbolTableRecord
100
AcDbRegAppTableRecord
2
ACAD
70
0
0
ENDTAB
0
TABLE
2
DIMSTYLE
5
A
100
AcDbSymbolTable
70
1
0
ENDTAB
0
TABLE
2
BLOCK_RECORD
5
1
100
AcDbSymbolTable
70
1
0
BLOCK_RECORD
5
1F
100
AcDbSymbolTableRecord
100
AcDbBlockTableRecord
2
*MODEL_SPACE
0
BLOCK_RECORD
5
1B
100
AcDbSymbolTableRecord
100
AcDbBlockTableRecord
2
*PAPER_SPACE
0
ENDTAB
0
ENDSEC
0
SECTION
2
BLOCKS
0
BLOCK
5
20
100
AcDbEntity
100
AcDbBlockBegin
2
*MODEL_SPACE
0
ENDBLK
5
21
100
AcDbEntity
100
AcDbBlockEnd
0
BLOCK
5
1C
100
AcDbEntity
100
AcDbBlockBegin
2
*PAPER_SPACE
0
ENDBLK
5
1D
100
AcDbEntity
100
AcDbBlockEnd
0
ENDSEC
0
SECTION
2
ENTITIES
0
LWPOLYLINE
5
100
100
AcDbEntity
8
0
100
AcDbPolyline
90
12
70
1
43
0.0
10
-22.224999999999998
20
38.494829198218305
10
0
20
44.450000000000003
10
22.225000000000055
20
38.494829198218284
10
38.494829198218333
20
22.224999999999966
10
44.45000000000001
20
-4.4408920985006262e-14
10
38.494829198218284
20
-22.225000000000037
10
22.224999999999973
20
-38.494829198218319
10
-2.6645352591003757e-14
20
-44.450000000000003
10
-22.225000000000019
20
-38.494829198218284
10
-38.494829198218305
20
-22.224999999999984
10
-44.450000000000003
20
1.3322676295501878e-14
10
-38.494829198218298
20
22.225000000000009
0
ARC
5
101
100
AcDbEntity
8
0
100
AcDbCircle
10
19.63238019138414
20
6.6829718341081552
30
0
40
42.564994637170123
210
0
220
-0
230
1
100
AcDbArc
50
78.71956087973048
51
117.46669942738284
0
LINE
5
102
100
AcDbEntity
8
0
100
AcDbLine
10
22.225000000000055
20
38.494829198218284
30
0
11
27.958576223753834
21
48.425674526828857
31
0
0
ARC
5
103
100
AcDbEntity
8
0
100
AcDbCircle
10
13.660654065438989
20
15.603813476805616
30
0
40
42.564994637170102
210
0
220
0
230
1
100
AcDbArc
50
108.71956087973049
51
147.46669942738282
0
LINE
5
104
100
AcDbEntity
8
0
100
AcDbLine
10
5.773159728050814e-14
20
44.450000000000017
30
0
11
-8.9370684524996543e-15
21
55.917152447507661
31
0
0
ARC
5
105
100
AcDbEntity
8
0
100
AcDbCircle
10
4.0285667145785276
20
20.343625899547138
30
0
40
42.564994637170088
210
0
220
0
230
1
100
AcDbArc
50
138.71956087973044
51
177.46669942738282
0
LINE
5
106
100
AcDbEntity
8
0
100
AcDbLine
10
-22.224999999999959
20
38.494829198218341
30
0
11
-27.958576223753795
21
48.425674526828857
31
0
0
ARC
5
107
100
AcDbEntity
8
0
100
AcDbCircle
10
-6.6829718341081552
20
19.632380191384136
30
0
40
42.564994637170102
210
0
220
0
230
1
100
AcDbArc
50
168.71956087973052
51
207.46669942738279
0
LINE
5
108
100
AcDbEntity
8
0
100
AcDbLine
10
-38.494829198218284
20
22.225000000000065
30
0
11
-48.425674526828843
21
27.958576223753834
31
0
0
ARC
5
109
100
AcDbEntity
8
0
100
AcDbCircle
10
-15.603813476805612
20
13.66065406543899
30
0
40
42.564994637170095
210
0
220
0
230
1
100
AcDbArc
50
198.71956087973047
51
237.46669942738282
0
LINE
5
110
100
AcDbEntity
8
0
100
AcDbLine
10
-44.450000000000017
20
6.6613381477509392e-14
30
0
11
-55.917152447507654
21
3.6104937872885314e-16
31
0
0
ARC
5
111
100
AcDbEntity
8
0
100
AcDbCircle
10
-20.343625899547142
20
4.0285667145785329
30
0
40
42.564994637170088
210
0
220
0
230
1
100
AcDbArc
50
228.71956087973044
51
267.46669942738282
0
LINE
5
112
100
AcDbEntity
8
0
100
AcDbLine
10
-38.494829198218348
20
-22.224999999999948
30
0
11
-48.425674526828857
21
-27.958576223753795
31
0
0
ARC
5
113
100
AcDbEntity
8
0
100
AcDbCircle
10
-19.63238019138414
20
-6.6829718341081534
30
0
40
42.564994637170088
210
0
220
0
230
1
100
AcDbArc
50
258.71956087973047
51
297.46669942738282
0
LINE
5
114
100
AcDbEntity
8
0
100
AcDbLine
10
-22.225000000000058
20
-38.494829198218284
30
0
11
-27.958576223753838
21
-48.425674526828821
31
0
0
ARC
5
115
100
AcDbEntity
8
0
100
AcDbCircle
10
-13.66065406543899
20
-15.603813476805612
30
0
40
42.564994637170102
210
0
220
0
230
1
100
AcDbArc
50
288.71956087973047
51
327.46669942738288
0
LINE
5
116
100
AcDbEntity
8
0
100
AcDbLine
10
-6.6613381477509392e-14
20
-44.450000000000017
30
0
11
-3.6104937872347311e-16
21
-55.917152447507661
31
0
0
ARC
5
117
100
AcDbEntity
8
0
100
AcDbCircle
10
-4.0285667145785355
20
-20.343625899547142
30
0
40
42.564994637170074
210
0
220
0
230
1
100
AcDbArc
50
318.71956087973041
51
357.46669942738282
0
LINE
5
118
100
AcDbEntity
8
0
100
AcDbLine
10
22.224999999999937
20
-38.494829198218369
30
0
11
27.958576223753774
21
-48.425674526828864
31
0
0
ARC
5
119
100
AcDbEntity
8
0
100
AcDbCircle
10
6.6829718341081525
20
-19.63238019138414
30
0
40
42.564994637170123
210
0
220
0
230
1
100
AcDbArc
50
-11.280439120269538
51
27.466699427382814
0
LINE
5
120
100
AcDbEntity
8
0
100
AcDbLine
10
38.494829198218284
20
-22.225000000000065
30
0
11
48.425674526828857
21
-27.958576223753838
31
0
0
ARC
5
121
100
AcDbEntity
8
0
100
AcDbCircle
10
15.603813476805609
20
-13.660654065438999
30
0
40
42.564994637170116
210
0
220
-0
230
1
100
AcDbArc
50
18.719560879730441
51
57.466699427382771
0
LINE
5
122
100
AcDbEntity
8
0
100
AcDbLine
10
44.450000000000017
20
-8.8817841970012523e-14
30
0
11
55.917152447507668
21
-3.1377905129195871e-14
31
0
0
ARC
5
123
100
AcDbEntity
8
0
100
AcDbCircle
10
20.343625899547142
20
-4.0285667145785355
30
0
40
42.564994637170123
210
0
220
-0
230
1
100
AcDbArc
50
48.719560879730452
51
87.466699427382792
0
LINE
5
124
100
AcDbEntity
8
0
100
AcDbLine
10
38.494829198218348
20
22.224999999999945
30
0
11
48.425674526828864
21
27.958576223753823
31
0
0
LINE
5
125
100
AcDbEntity
8
0
100
AcDbLine
10
0
20
0
30
0
11
22.225000000000019
21
38.494829198218291
31
0
0
CIRCLE
5
126
100
AcDbEntity
8
0
100
AcDbCircle
10
0
20
0
30
0
40
3.1749999999999998
210
0
220
0
230
1
0
CIRCLE
5
127
100
AcDbEntity
8
0
100
AcDbCircle
10
0
20
25
30
0
40
3.8100000000000001
210
0
220
0
230
1
0
CIRCLE
5
128
100
AcDbEntity
8
0
100
AcDbCircle
10
-25
20
5.5511151231257827e-15
30
0
40
3.8100000000000001
210
0
220
0
230
1
0
CIRCLE
5
129
100
AcDbEntity
8
0
100
AcDbCircle
10
-3.061616997868383e-15
20
-25
30
0
40
3.8100000000000001
210
0
220
0
230
1
0
CIRCLE
5
130
100
AcDbEntity
8
0
100
AcDbCircle
10
25
20
-5.5511151231257827e-15
30
0
40
3.8100000000000001
210
0
220
0
230
1
0
CIRCLE
5
131
100
AcDbEntity
8
0
100
AcDbCircle
10
0
20
0
30
0
40
9.7789999999999999
210
0
220
0
230
1
0
LINE
5
132
100
AcDbEntity
8
0
100
AcDbLine
10
-9.7789568369379172
20
-0.029054798315403859
30
0
11
9.7789568369379172
21
-0.029054798315403859
31
0
0
LINE
5
133
100
AcDbEntity
8
0
100
AcDbLine
10
0
20
9.7789999999999999
30
0
11
0
21
-9.7789999999999999
31
0
0
CIRCLE
5
134
100
AcDbEntity
8
0
100
AcDbCircle
10
-9.7789568369379172
20
-0.029054798315403859
30
0
40
2.5019
210
0
220
0
230
1
0
CIRCLE
5
135
100
AcDbEntity
8
0
100
AcDbCircle
10
0.029054798315401687
20
-9.7789568369379172
30
0
40
2.5019
210
0
220
0
230
1
0
CIRCLE
5
136
100
AcDbEntity
8
0
100
AcDbCircle
10
9.7789568369379172
20
0.029054798315402662
30
0
40
2.5019
210
0
220
0
230
1
0
CIRCLE
5
137
100
AcDbEntity
8
0
100
AcDbCircle
10
-0.029054798315401687
20
9.7789568369379172
30
0
40
2.5019
210
0
220
0
230
1
0
ENDSEC
0
SECTION
2
OBJECTS
0
DICTIONARY
5
C
100
AcDbDictionary
3
ACAD_GROUP
350
D
3
ACAD_MLINESTYLE
350
17
0
DICTIONARY
5
D
100
AcDbDictionary
0
DICTIONARY
5
1A
330
C
100
AcDbDictionary
0
DICTIONARY
5
17
100
AcDbDictionary
0
ENDSEC
0
EOF
