0
SECTION
2
HEADER
9
$INSUNITS
70
4
9
$ACADVER
1
AC1014
9
$HANDSEED
5
FFFF
0
ENDSEC
0
SECTION
2
TABLES
0
TABLE
2
VPORT
5
8
100
AcDbSymbolTable
0
ENDTAB
0
TABLE
2
LTYPE
5
5
100
AcDbSymbolTable
0
LTYPE
5
14
100
AcDbSymbolTableRecord
100
AcDbLinetypeTableRecord
2
BYBLOCK
70
0
0
LTYPE
5
15
100
AcDbSymbolTableRecord
100
AcDbLinetypeTableRecord
2
BYLAYER
70
0
0
ENDTAB
0
TABLE
2
LAYER
5
2
100
AcDbSymbolTable
70
2
0
LAYER
5
50
100
AcDbSymbolTableRecord
100
AcDbLayerTableRecord
2
0
70
0
6
CONTINUOUS
0
ENDTAB
0
TABLE
2
STYLE
5
3
100
AcDbSymbolTable
70
1
0
STYLE
5
11
100
AcDbSymbolTableRecord
100
AcDbTextStyleTableRecord
2
STANDARD
70
0
0
ENDTAB
0
TABLE
2
VIEW
5
6
100
AcDbSymbolTable
70
0
0
ENDTAB
0
TABLE
2
UCS
5
7
100
AcDbSymbolTable
70
0
0
ENDTAB
0
TABLE
2
APPID
5
9
100
AcDbSymbolTable
70
2
0
APPID
5
12
100
AcDbSymbolTableRecord
100
AcDbRegAppTableRecord
2
ACAD
70
0
0
ENDTAB
0
TABLE
2
DIMSTYLE
5
A
100
AcDbSymbolTable
70
1
0
ENDTAB
0
TABLE
2
BLOCK_RECORD
5
1
100
AcDbSymbolTable
70
1
0
BLOCK_RECORD
5
1F
100
AcDbSymbolTableRecord
100
AcDbBlockTableRecord
2
*MODEL_SPACE
0
BLOCK_RECORD
5
1B
100
AcDbSymbolTableRecord
100
AcDbBlockTableRecord
2
*PAPER_SPACE
0
ENDTAB
0
ENDSEC
0
SECTION
2
BLOCKS
0
BLOCK
5
20
100
AcDbEntity
100
AcDbBlockBegin
2
*MODEL_SPACE
0
ENDBLK
5
21
100
AcDbEntity
100
AcDbBlockEnd
0
BLOCK
5
1C
100
AcDbEntity
100
AcDbBlockBegin
2
*PAPER_SPACE
0
ENDBLK
5
1D
100
AcDbEntity
100
AcDbBlockEnd
0
ENDSEC
0
SECTION
2
ENTITIES
0
LINE
5
100
100
AcDbEntity
8
0
100
AcDbLine
10
-30.480000000000004
20
25.000000000000032
30
0
11
-20.320000000000004
21
24.999999999999972
31
0
0
LINE
5
101
100
AcDbEntity
8
0
100
AcDbLine
10
-7.6199999999999948
20
28.175000000000008
30
0
11
-20.319999999999997
21
28.175000000000018
31
0
0
LINE
5
102
100
AcDbEntity
8
0
100
AcDbLine
10
-1.7525999999999895
20
24.999999999999986
30
0
11
-1.7525999999999897
21
20.624800000000011
31
0
0
LINE
5
103
100
AcDbEntity
8
0
100
AcDbLine
10
8.8817841970012523e-15
20
24.999999999999858
30
0
11
8.8817841970012523e-15
21
-25.399999999999991
31
0
0
LINE
5
104
100
AcDbEntity
8
0
100
AcDbLine
10
-1.7525999999999882
20
15.366999999999997
30
0
11
8.8817841970012523e-15
21
15.366999999999997
31
0
0
LINE
5
105
100
AcDbEntity
8
0
100
AcDbLine
10
-3.7845999999999917
20
18.084800000000001
30
0
11
-1.7525999999999882
21
18.084800000000001
31
0
0
LINE
5
106
100
AcDbEntity
8
0
100
AcDbLine
10
-1.7525999999999897
20
20.624800000000011
30
0
11
-3.7845999999999913
21
20.624800000000011
31
0
0
LINE
5
107
100
AcDbEntity
8
0
100
AcDbLine
10
-20.319999999999997
20
28.175000000000018
30
0
11
-20.320000000000004
21
24.999999999999972
31
0
0
LINE
5
108
100
AcDbEntity
8
0
100
AcDbLine
10
-7.6199999999999912
20
25.000000000000007
30
0
11
-1.7525999999999895
21
24.999999999999986
31
0
0
LINE
5
109
100
AcDbEntity
8
0
100
AcDbLine
10
-3.7845999999999913
20
20.624800000000011
30
0
11
-3.7845999999999917
21
18.084800000000001
31
0
0
LINE
5
110
100
AcDbEntity
8
0
100
AcDbLine
10
-1.7525999999999882
20
18.084800000000001
30
0
11
-1.7525999999999882
21
15.366999999999997
31
0
0
LINE
5
111
100
AcDbEntity
8
0
100
AcDbLine
10
-30.480000000000022
20
2.7855396947816722
30
0
11
-30.480000000000004
21
25.000000000000032
31
0
0
LINE
5
112
100
AcDbEntity
8
0
100
AcDbLine
10
-7.6199999999999912
20
25.000000000000007
30
0
11
-7.6199999999999948
21
28.175000000000008
31
0
0
LINE
5
113
100
AcDbEntity
8
0
100
AcDbLine
10
1.7526000000000059
20
18.084800000000001
30
0
11
1.7526000000000059
21
15.366999999999997
31
0
0
LINE
5
114
100
AcDbEntity
8
0
100
AcDbLine
10
1.7526000000000073
20
25.000000000000004
30
0
11
1.7526000000000073
21
20.624800000000011
31
0
0
LINE
5
115
100
AcDbEntity
8
0
100
AcDbLine
10
3.7846000000000095
20
20.624800000000011
30
0
11
3.7846000000000091
21
18.084800000000001
31
0
0
LINE
5
116
100
AcDbEntity
8
0
100
AcDbLine
10
1.7526000000000073
20
20.624800000000011
30
0
11
3.7846000000000095
21
20.624800000000011
31
0
0
LINE
5
117
100
AcDbEntity
8
0
100
AcDbLine
10
7.620000000000009
20
24.999999999999982
30
0
11
7.6200000000000134
21
28.174999999999983
31
0
0
LINE
5
118
100
AcDbEntity
8
0
100
AcDbLine
10
1.7526000000000059
20
15.366999999999997
30
0
11
8.8817841970012523e-15
21
15.366999999999997
31
0
0
LINE
5
119
100
AcDbEntity
8
0
100
AcDbLine
10
7.620000000000009
20
24.999999999999982
30
0
11
1.7526000000000073
21
25.000000000000004
31
0
0
LINE
5
120
100
AcDbEntity
8
0
100
AcDbLine
10
30.480000000000146
20
25.000000000000032
30
0
11
20.320000000000022
21
24.999999999999972
31
0
0
LINE
5
121
100
AcDbEntity
8
0
100
AcDbLine
10
3.7846000000000091
20
18.084800000000001
30
0
11
1.7526000000000059
21
18.084800000000001
31
0
0
LINE
5
122
100
AcDbEntity
8
0
100
AcDbLine
10
20.320000000000018
20
28.17499999999999
30
0
11
20.320000000000022
21
24.999999999999972
31
0
0
LINE
5
123
100
AcDbEntity
8
0
100
AcDbLine
10
7.6200000000000134
20
28.174999999999983
30
0
11
20.320000000000018
21
28.17499999999999
31
0
0
LINE
5
124
100
AcDbEntity
8
0
100
AcDbLine
10
30.48000000000004
20
2.7855396947816691
30
0
11
30.480000000000146
21
25.000000000000032
31
0
0
LINE
5
125
100
AcDbEntity
8
0
100
AcDbLine
10
30.480000000000146
20
-19.428920610436698
30
0
11
20.320000000000022
21
-19.428920610436641
31
0
0
LINE
5
126
100
AcDbEntity
8
0
100
AcDbLine
10
1.7526000000000019
20
-19.428920610436663
30
0
11
1.7526000000000064
21
-15.053720610436674
31
0
0
LINE
5
127
100
AcDbEntity
8
0
100
AcDbLine
10
-1.7525999999999886
20
-15.053720610436674
30
0
11
-3.7845999999999913
21
-15.053720610436674
31
0
0
LINE
5
128
100
AcDbEntity
8
0
100
AcDbLine
10
-3.7845999999999913
20
-12.513720610436664
30
0
11
-1.7525999999999886
21
-12.513720610436664
31
0
0
LINE
5
129
100
AcDbEntity
8
0
100
AcDbLine
10
7.6200000000000045
20
-19.428920610436641
30
0
11
1.7526000000000019
21
-19.428920610436663
31
0
0
LINE
5
130
100
AcDbEntity
8
0
100
AcDbLine
10
-1.7525999999999886
20
-9.7959206104366583
30
0
11
8.8817841970012523e-15
21
-9.7959206104366583
31
0
0
LINE
5
131
100
AcDbEntity
8
0
100
AcDbLine
10
30.48000000000004
20
2.7855396947816691
30
0
11
30.480000000000146
21
-19.428920610436698
31
0
0
LINE
5
132
100
AcDbEntity
8
0
100
AcDbLine
10
-7.6199999999999957
20
-19.428920610436666
30
0
11
-1.7525999999999931
21
-19.428920610436645
31
0
0
LINE
5
133
100
AcDbEntity
8
0
100
AcDbLine
10
-1.7525999999999931
20
-19.428920610436645
30
0
11
-1.7525999999999886
21
-15.053720610436674
31
0
0
LINE
5
134
100
AcDbEntity
8
0
100
AcDbLine
10
-30.480000000000011
20
-19.428920610436688
30
0
11
-20.320000000000007
21
-19.428920610436631
31
0
0
LINE
5
135
100
AcDbEntity
8
0
100
AcDbLine
10
-20.32
20
-22.603920610436674
30
0
11
-20.320000000000007
21
-19.428920610436631
31
0
0
LINE
5
136
100
AcDbEntity
8
0
100
AcDbLine
10
3.7846000000000091
20
-12.513720610436664
30
0
11
1.7526000000000064
21
-12.513720610436664
31
0
0
LINE
5
137
100
AcDbEntity
8
0
100
AcDbLine
10
-7.6199999999999957
20
-19.428920610436666
30
0
11
-7.6200000000000001
21
-22.603920610436667
31
0
0
LINE
5
138
100
AcDbEntity
8
0
100
AcDbLine
10
-7.6200000000000001
20
-22.603920610436667
30
0
11
-20.32
21
-22.603920610436674
31
0
0
LINE
5
139
100
AcDbEntity
8
0
100
AcDbLine
10
-30.480000000000022
20
2.7855396947816722
30
0
11
-30.480000000000011
21
-19.428920610436688
31
0
0
LINE
5
140
100
AcDbEntity
8
0
100
AcDbLine
10
20.320000000000014
20
-22.603920610436656
30
0
11
20.320000000000022
21
-19.428920610436641
31
0
0
LINE
5
141
100
AcDbEntity
8
0
100
AcDbLine
10
7.6200000000000045
20
-19.428920610436641
30
0
11
7.620000000000009
21
-22.603920610436639
31
0
0
LINE
5
142
100
AcDbEntity
8
0
100
AcDbLine
10
1.7526000000000064
20
-12.513720610436664
30
0
11
1.7526000000000064
21
-9.7959206104366583
31
0
0
LINE
5
143
100
AcDbEntity
8
0
100
AcDbLine
10
7.620000000000009
20
-22.603920610436639
30
0
11
20.320000000000014
21
-22.603920610436656
31
0
0
LINE
5
144
100
AcDbEntity
8
0
100
AcDbLine
10
1.7526000000000064
20
-15.053720610436674
30
0
11
3.7846000000000091
21
-15.053720610436674
31
0
0
LINE
5
145
100
AcDbEntity
8
0
100
AcDbLine
10
-1.7525999999999886
20
-12.513720610436664
30
0
11
-1.7525999999999886
21
-9.7959206104366583
31
0
0
LINE
5
146
100
AcDbEntity
8
0
100
AcDbLine
10
-3.7845999999999913
20
-15.053720610436674
30
0
11
-3.7845999999999913
21
-12.513720610436664
31
0
0
LINE
5
147
100
AcDbEntity
8
0
100
AcDbLine
10
1.7526000000000064
20
-9.7959206104366583
30
0
11
8.8817841970012523e-15
21
-9.7959206104366583
31
0
0
LINE
5
148
100
AcDbEntity
8
0
100
AcDbLine
10
3.7846000000000091
20
-15.053720610436674
30
0
11
3.7846000000000091
21
-12.513720610436664
31
0
0
ENDSEC
0
SECTION
2
OBJECTS
0
DICTIONARY
5
C
100
AcDbDictionary
3
ACAD_GROUP
350
D
3
ACAD_MLINESTYLE
350
17
0
DICTIONARY
5
D
100
AcDbDictionary
0
DICTIONARY
5
1A
330
C
100
AcDbDictionary
0
DICTIONARY
5
17
100
AcDbDictionary
0
ENDSEC
0
EOF
